<svg width="235" height="233" viewBox="0 0 235 233" fill="none" xmlns="http://www.w3.org/2000/svg">
<ellipse cx="117.077" cy="116.5" rx="117.077" ry="116.5" fill="#FFA151"/>
<mask id="mask0" style="mask-type:alpha" maskUnits="userSpaceOnUse" x="0" y="0" width="235" height="233">
<ellipse cx="117.077" cy="116.5" rx="117.077" ry="116.5" fill="#C4C4C4"/>
</mask>
<g mask="url(#mask0)">
<path fill-rule="evenodd" clip-rule="evenodd" d="M184.995 -232.396C185.909 -222.399 178.505 -213.558 168.459 -212.649L144.86 -210.515L149.112 -208.597C156.641 -205.202 160.941 -197.198 159.595 -189.082C158.248 -180.966 151.592 -174.762 143.365 -173.955L-25.0804 -157.428C-35.1195 -156.443 -44.0601 -163.743 -45.05 -173.732C-46.0398 -183.722 -38.704 -192.618 -28.665 -193.603L71.9607 -203.476L66.7492 -205.826C59.196 -209.232 54.8962 -217.273 56.2779 -225.409C57.6595 -233.546 64.3759 -239.735 72.6342 -240.482L165.151 -248.851C175.198 -249.76 184.082 -242.392 184.995 -232.396ZM-179.167 -207.655C-170.502 -212.794 -159.29 -209.97 -154.126 -201.348L-117.782 -140.671C-114.418 -135.054 -114.345 -128.072 -117.591 -122.387C-120.837 -116.702 -126.901 -113.19 -133.472 -113.19H-187.617C-197.704 -113.19 -205.882 -121.327 -205.882 -131.365C-205.882 -141.403 -197.704 -149.541 -187.617 -149.541H-165.622L-185.506 -182.737C-190.67 -191.36 -187.832 -202.516 -179.167 -207.655ZM258.539 -180.323C261.207 -170.643 255.484 -160.643 245.755 -157.988L217.673 -150.323L240.302 -142.181C248.158 -139.354 253.086 -131.582 252.268 -123.309C251.45 -115.035 245.095 -108.369 236.835 -107.12L105.419 -87.2427C95.4455 -85.7343 86.1318 -92.5564 84.6159 -102.48C83.1 -112.404 89.9559 -121.672 99.9291 -123.181L160.304 -132.312L151.132 -135.613C143.647 -138.306 138.777 -145.512 139.092 -153.426C139.408 -161.339 144.836 -168.138 152.512 -170.233L236.093 -193.044C245.821 -195.699 255.871 -190.004 258.539 -180.323ZM-103.247 -150.275C-100.1 -157.299 -92.8499 -161.592 -85.1445 -160.993L63.0931 -149.486C73.1502 -148.705 80.6671 -139.959 79.8825 -129.952C79.0979 -119.944 70.309 -112.464 60.2518 -113.245L-36.7674 -120.777L-7.73929 -93.2647C-2.33118 -88.139 -0.603882 -80.2534 -3.37781 -73.3532C-6.15176 -66.4529 -12.868 -61.9283 -20.3367 -61.9283H-153.855C-163.942 -61.9283 -172.12 -70.0657 -172.12 -80.1037C-172.12 -90.1417 -163.942 -98.2791 -153.855 -98.2791H-65.9973L-99.1626 -129.712C-104.759 -135.016 -106.395 -143.251 -103.247 -150.275ZM44.6117 -65.6725C47.4716 -73.1155 54.8702 -77.8368 62.8611 -77.3182L207.945 -67.9028C218.011 -67.2496 225.639 -58.5999 224.983 -48.5831C224.326 -38.5664 215.634 -30.9758 205.568 -31.6291L119.389 -37.2217L141.284 -20.1269C147.182 -15.5222 149.653 -7.79893 147.517 -0.648514C145.381 6.50189 139.071 11.6274 131.603 12.2785L-12.4093 24.8323C-22.4585 25.7083 -31.3186 18.3121 -32.199 8.31238C-33.0793 -1.68732 -25.6465 -10.5038 -15.5973 -11.3798L82.3696 -19.9198L50.3975 -44.882C44.0974 -49.8008 41.7517 -58.2296 44.6117 -65.6725ZM-135.887 -41.2357C-134.074 -31.3611 -140.648 -21.8937 -150.572 -20.0896L-259.902 -0.212677C-269.825 1.59145 -279.339 -4.9509 -281.153 -14.8254C-282.966 -24.7 -276.391 -34.1674 -266.467 -35.9716L-157.138 -55.8484C-147.214 -57.6526 -137.7 -51.1102 -135.887 -41.2357ZM-32.891 -37.8846C-29.034 -28.6093 -33.4635 -17.9789 -42.7847 -14.1408L-93.9149 6.91223L-24.779 36.0179C-17.1641 39.2238 -12.6631 47.1199 -13.8057 55.2686C-14.9483 63.4172 -21.4495 69.7859 -29.6554 70.795L-216.792 93.8104C-226.804 95.0417 -235.923 87.9639 -237.16 78.0017C-238.398 68.0395 -231.285 58.9654 -221.273 57.7341L-101.841 43.0455L-148.351 23.4652C-155.133 20.6101 -159.529 13.9819 -159.5 6.65442C-159.47 -0.673004 -155.022 -7.26646 -148.218 -10.0681L-56.7523 -47.7296C-47.4311 -51.5676 -36.748 -47.1599 -32.891 -37.8846ZM281.202 3.7382C282.844 13.5429 276.268 22.8211 266.478 24.6038C266.614 24.5792 266.69 24.5642 266.691 24.5673C266.693 24.5761 266.108 24.7255 264.593 25.1969C262.775 25.7627 260.3 26.5724 257.28 27.5917C251.259 29.6236 243.378 32.3837 234.866 35.4488C230.371 37.0674 225.738 38.7574 221.144 40.4573L243.546 53.9447C249.72 57.662 253.116 64.6482 252.212 71.7725C251.307 78.8969 246.273 84.8236 239.364 86.8968L141.744 116.189C132.085 119.087 121.895 113.646 118.983 104.035C116.07 94.4244 121.539 84.2842 131.197 81.3861L189.499 63.8918L170.573 52.4974C164.71 48.9674 161.326 42.4686 161.808 35.6665C162.291 28.8643 166.559 22.9033 172.863 20.2283C185.274 14.9616 205.202 7.47293 222.435 1.26736C231.103 -1.85399 239.227 -4.70056 245.548 -6.8334C248.698 -7.89647 251.478 -8.80858 253.687 -9.49629C255.346 -10.0125 258.05 -10.8483 260.182 -11.2019C270.132 -12.8521 279.543 -6.16322 281.202 3.7382ZM131.652 47.2718C134.697 56.8417 129.368 67.0555 119.751 70.0849L45.7842 93.3835L64.7081 96.5572C73.1204 97.968 79.4309 104.985 79.9091 113.461C80.3873 121.937 74.9058 129.613 66.7051 131.952L-98.3543 179.029C-108.052 181.794 -118.166 176.214 -120.945 166.564C-123.725 156.915 -118.117 146.851 -108.42 144.085L-20.768 119.086L-34.9315 116.71C-43.2515 115.315 -49.5283 108.431 -50.1168 100.055C-50.7052 91.6798 -45.4521 83.9933 -37.4082 81.4596L108.726 35.429C118.344 32.3996 128.608 37.7018 131.652 47.2718ZM-99.9373 114.687C-96.4078 124.09 -101.207 134.56 -110.657 138.073L-197.918 170.503C-207.368 174.015 -217.89 169.24 -221.42 159.836C-224.949 150.433 -220.15 139.962 -210.699 136.45L-123.439 104.019C-113.989 100.507 -103.467 105.283 -99.9373 114.687ZM153.817 133.703C156.976 143.236 151.771 153.512 142.191 156.656L90.1348 173.739L116.227 187.32C123.12 190.908 126.973 198.445 125.828 206.101C124.682 213.757 118.79 219.851 111.146 221.286L-16.9517 245.325C-26.8647 247.185 -36.4162 240.697 -38.2856 230.833C-40.1551 220.968 -33.6346 211.464 -23.7216 209.604L52.6785 195.266L34.9483 186.038C28.4465 182.654 24.611 175.727 25.2097 168.449C25.8085 161.172 30.7253 154.958 37.6936 152.672L130.75 122.134C140.33 118.99 150.657 124.17 153.817 133.703ZM267.459 161.488C269.562 171.305 263.268 180.96 253.402 183.052L193.94 195.662L221.11 217.897C226.19 222.055 228.631 228.609 227.501 235.057C226.372 241.505 221.845 246.85 215.651 249.051L147.717 273.196C138.217 276.572 127.765 271.646 124.372 262.193C120.979 252.74 125.93 242.339 135.429 238.963L173.016 225.604L141.466 199.784C136.048 195.351 133.661 188.222 135.322 181.441C136.984 174.66 142.401 169.425 149.261 167.97L245.788 147.5C255.654 145.408 265.357 151.67 267.459 161.488Z" fill="#FF3B8C"/>
</g>
<path fill-rule="evenodd" clip-rule="evenodd" d="M22.7999 47.4097C27.4732 116.186 78.8289 217.645 228.488 152.402C213.276 199.174 169.146 232.998 117.077 232.998C52.417 232.998 0 180.84 0 116.498C0 90.6348 8.46978 66.7397 22.7999 47.4097Z" fill="#01050C" fill-opacity="0.35"/>
</svg>
