<svg width="42" height="42" viewBox="0 0 213 213" fill="none" xmlns="http://www.w3.org/2000/svg">
<circle cx="106.5" cy="106.5" r="106.5" fill="#3937B4"/>
<mask id="mask0" style="mask-type:alpha" maskUnits="userSpaceOnUse" x="0" y="0" width="213" height="213">
<circle cx="106.5" cy="106.5" r="106.5" fill="#C4C4C4"/>
</mask>
<g mask="url(#mask0)">
<path fill-rule="evenodd" clip-rule="evenodd" d="M189.745 7.74886C164.669 7.95176 137.42 10.7275 115.338 19.5604C62.1811 40.8234 12.6649 36.1785 -12.2684 30.8356C-17.7458 29.6619 -21.2346 24.2701 -20.0609 18.7927C-18.8872 13.3153 -13.4953 9.82647 -8.01795 11.0002C14.3821 15.8002 59.5325 20.0344 107.804 0.725632C133.371 -9.50106 163.598 -12.326 189.581 -12.5362C211.395 -12.7127 231.006 -11.0316 243.086 -9.99613C245.452 -9.79332 247.529 -9.61527 249.278 -9.48079C254.863 -9.05116 259.042 -4.17514 258.613 1.41011C258.183 6.99536 253.307 11.1748 247.722 10.7452C245.814 10.5984 243.609 10.41 241.142 10.1992C228.998 9.16152 210.5 7.58091 189.745 7.74886ZM167.501 52.929C151.301 48.5536 132.112 49.8571 112.465 64.1453C87.5015 82.3009 60.5184 85.0515 37.4213 81.2948C14.5581 77.576 -4.94723 67.4465 -16.2289 58.9853C-20.7103 55.6242 -21.6185 49.2667 -18.2575 44.7853C-14.8964 40.3039 -8.53885 39.3956 -4.05746 42.7567C4.94659 49.5097 21.4484 58.1445 40.678 61.2722C59.6738 64.3619 80.8693 62.0411 100.534 47.7395C125.516 29.5706 151.124 27.4931 172.791 33.3451C194.018 39.0783 211.329 52.3498 221.039 64.9725C224.455 69.4126 223.624 75.7807 219.184 79.1962C214.744 82.6116 208.376 81.781 204.96 77.3409C197.765 67.9874 184.141 57.4232 167.501 52.929ZM179.925 103.387C163.546 98.9615 140.897 100.854 112.498 121.68C80.1009 145.438 49.9752 150.921 25.139 147.243C0.666561 143.62 -17.8895 131.216 -27.7911 120.324C-31.5593 116.179 -31.2538 109.764 -27.1088 105.996C-22.9639 102.228 -16.5491 102.533 -12.7809 106.678C-5.77777 114.382 8.63042 124.292 28.1104 127.176C47.2266 130.007 72.0413 126.193 100.502 105.322C132.959 81.5192 161.87 77.4953 185.217 83.804C208.04 89.971 223.94 105.587 231.781 118.328C234.717 123.099 233.229 129.346 228.458 132.282C223.688 135.218 217.44 133.73 214.504 128.96C208.821 119.725 196.829 107.955 179.925 103.387ZM175.939 141.871C167.886 141.701 157.038 144.902 142.926 155.251C103.727 183.997 72.7388 193.818 49.4258 195.231C25.9435 196.655 11.3811 189.459 5.60652 186.572C0.596165 184.067 -1.43468 177.974 1.07049 172.964C3.57567 167.954 9.66821 165.923 14.6786 168.428L14.7862 168.482C19.2226 170.701 29.9906 176.086 48.1986 174.983C66.7248 173.86 94.0582 165.932 130.93 138.892C147.247 126.926 162.39 121.295 176.367 121.59C190.57 121.889 202.003 128.273 210.734 137.182C227.593 154.383 235.622 182.113 238.264 201.487C239.021 207.037 235.135 212.15 229.584 212.907C224.034 213.664 218.921 209.778 218.164 204.228C215.735 186.411 208.549 163.934 196.247 151.382C190.398 145.415 183.765 142.036 175.939 141.871ZM162.396 185.851C157.415 188.442 151.122 192.651 143.324 198.986C122.675 215.764 106.389 226.166 93.2592 232.126C80.1114 238.094 69.5205 239.882 60.6201 238.547C51.522 237.182 45.6376 232.758 41.8161 229.414C40.7669 228.496 40.1055 227.887 39.6007 227.421C39.1435 227 38.8147 226.697 38.4427 226.391C33.8629 225.413 30.4282 221.343 30.4282 216.472C30.4282 210.87 34.9694 206.329 40.5711 206.329C45.3032 206.329 48.7507 208.709 50.5008 210.063C51.6216 210.93 53.1171 212.288 54.1893 213.261C54.5911 213.626 54.9334 213.937 55.1743 214.147C57.6921 216.35 60.0488 217.948 63.6293 218.486C67.4074 219.052 73.9326 218.621 84.8741 213.654C95.8335 208.679 110.61 199.429 130.532 183.242C138.963 176.392 146.426 171.292 153.034 167.855C159.538 164.471 165.887 162.342 171.908 162.287C178.384 162.228 184.132 164.606 188.306 169.34C192.142 173.689 193.917 179.194 194.74 184.303C196.376 194.456 194.877 207.181 192.359 219.282C189.784 231.658 185.896 244.507 181.972 255.407C180.074 260.678 174.263 263.412 168.993 261.515C163.722 259.617 160.988 253.807 162.885 248.536C166.568 238.305 170.16 226.389 172.498 215.15C174.893 203.638 175.739 193.9 174.713 187.53C174.205 184.376 173.397 183.103 173.092 182.757C173.06 182.722 173.038 182.7 173.025 182.688L173.011 182.675C173.004 182.672 172.945 182.648 172.811 182.623C172.674 182.597 172.441 182.569 172.092 182.572C170.554 182.586 167.482 183.206 162.396 185.851ZM37.8332 225.928C37.8327 225.925 37.8644 225.944 37.9302 225.99C37.8668 225.954 37.8338 225.93 37.8332 225.928Z" fill="#25BBB2"/>
</g>
<path fill-rule="evenodd" clip-rule="evenodd" d="M20.74 43.3418C24.9915 106.214 71.7081 198.963 207.847 139.321C194.01 182.079 153.866 213 106.5 213C47.6817 213 0 165.318 0 106.5C0 82.8565 7.70457 61.0126 20.74 43.3418Z" fill="#01050C" fill-opacity="0.35"/>
</svg>