<?xml version='1.0' encoding='iso-8859-1'?>
<svg version="1.1" xmlns="http://www.w3.org/2000/svg" viewBox="0 0 298.62 298.62" enable-background="new 0 0 298.62 298.62">
  <path d="m293.247,34.241h-21.254c-2.967,0-5.373,2.406-5.373,5.373 0,7.71 0,12.41 0,19.802-4.741,0-233.286,0-234.62,0v-19.802c0-2.967-2.406-5.373-5.373-5.373h-21.254c-2.968,0-5.373,2.406-5.373,5.373v219.392c0,2.967 2.405,5.373 5.373,5.373h21.254c2.967,0 5.373-2.406 5.373-5.373 0-17.896 0-67.364 0-85.12 7.166,0 217.686,0 234.62,0v85.12c0,2.967 2.406,5.373 5.373,5.373h21.254c2.967,0 5.373-2.406 5.373-5.373v-219.392c0-2.967-2.405-5.373-5.373-5.373zm-261.247,119.645v-27.607l23.16-46.862h35.694l-36.803,74.47h-22.051zm78.647-.001l36.803-74.47h35.694l-36.803,74.47h-35.694zm153.641-51.912l-25.655,51.911h-35.694l36.804-74.47h24.546v22.559z"/>
</svg>
