<svg width="86" height="61" viewBox="0 0 86 61" fill="none" xmlns="http://www.w3.org/2000/svg">
    <path d="M65.1902 52.7545L60.9966 31.1623C60.9609 30.9787 60.842 30.822 60.6746 30.7383L37.5118 19.1569C37.1665 18.9842 36.7502 19.1763 36.6574 19.551L31.3779 40.8716" stroke="#094465" stroke-width="3.0127" stroke-linecap="round"/>
    <path d="M36.6393 36.7967L14.1939 25.574C13.6936 25.3239 13.7746 24.5862 14.3173 24.4506L36.6225 18.8742C36.762 18.8394 36.9094 18.8555 37.0381 18.9199L59.4835 30.1425C59.9838 30.3927 59.9028 31.1303 59.3601 31.266L37.0549 36.8424C36.9154 36.8772 36.768 36.8611 36.6393 36.7967Z" fill="#21D0B1"/>
    <path d="M60.7428 30.9203L38.5703 36.4635C38.0107 36.6034 37.5933 35.9529 37.9536 35.5026L60.8131 6.92825C60.8955 6.82522 61.0095 6.7521 61.1374 6.7201L83.31 1.17696C83.8695 1.03708 84.2869 1.68756 83.9267 2.13791L61.0672 30.7122C60.9848 30.8152 60.8708 30.8883 60.7428 30.9203Z" fill="#10B496"/>
    <path d="M41.0888 58.7798L36.8952 37.1876C36.8595 37.0039 36.7405 36.8472 36.5732 36.7636L13.4103 25.1821C13.0651 25.0095 12.6488 25.2015 12.556 25.5762L7.27649 46.8969" stroke="#094465" stroke-width="3.0127" stroke-linecap="round"/>
</svg>