<svg width="1440" height="350" viewBox="0 0 1440 350" fill="none" xmlns="http://www.w3.org/2000/svg">
<path fill-rule="evenodd" clip-rule="evenodd" d="M1445 116.65L1642 176L1445 330.5H5L-201 188.5L5 116.65C239.278 78.0677 479.795 58 725 58C970.205 58 1210.72 78.0677 1445 116.65Z" fill="#EEEEEE"/>
<g filter="url(#filter0_di_374_692)">
<ellipse cx="150.012" cy="135.023" rx="64.394" ry="19.9218" transform="rotate(-5.51947 150.012 135.023)" fill="#E5E5E5"/>
</g>
<g filter="url(#filter1_di_374_692)">
<ellipse cx="963.817" cy="119.162" rx="64.394" ry="19.9218" transform="rotate(4.72862 963.817 119.162)" fill="#E5E5E5"/>
</g>
<g filter="url(#filter2_di_374_692)">
<ellipse cx="1378.82" cy="169.162" rx="64.394" ry="19.9218" transform="rotate(4.72862 1378.82 169.162)" fill="#E5E5E5"/>
</g>
<g filter="url(#filter3_di_374_692)">
<ellipse cx="1141.89" cy="239.441" rx="121.549" ry="45.5765" transform="rotate(4.72862 1141.89 239.441)" fill="#E5E5E5"/>
</g>
<g filter="url(#filter4_di_374_692)">
<ellipse cx="377.451" cy="214.57" rx="64.394" ry="24.4902" transform="rotate(-5.51947 377.451 214.57)" fill="#E5E5E5"/>
</g>
<g filter="url(#filter5_di_374_692)">
<ellipse cx="530.264" cy="108.88" rx="64.394" ry="24.4902" transform="rotate(-2.14237 530.264 108.88)" fill="#E5E5E5"/>
</g>
<g opacity="0.5" filter="url(#filter6_d_374_692)">
<path d="M1171 116.881C1171 122.404 1148.51 124.381 1122 124.381C1095.49 124.381 1076 117.904 1076 112.381C1076 106.858 1099.49 99.381 1126 99.381C1152.51 99.381 1171 111.358 1171 116.881Z" fill="#111111" fill-opacity="0.01"/>
</g>
<g filter="url(#filter7_ii_374_692)">
<path d="M1119.9 111.922L1124 107.757M1167.03 64.0118L1157.2 74.0104L1143.17 88.2669L1124 107.757M1147.12 114.734L1133.43 98.1737L1128.27 91.5091L1125.58 88.8837M1124 107.757L1100.5 110" stroke="#4E3331" stroke-width="4" stroke-linecap="round" stroke-linejoin="round"/>
</g>
<path d="M1115.22 93.8269L1114.88 94.1919L1127.55 91.4341L1124.86 88.8086L1122.87 89.1543C1120.53 91.292 1117.9 92.8103 1115.22 93.8269Z" fill="url(#paint0_linear_374_692)"/>
<path d="M1097.59 93.5533C1100.19 95.3019 1105.57 96.1633 1111.3 94.9697L1111.75 94.8709C1112.91 94.6098 1114.07 94.265 1115.22 93.8269L1119.02 89.8242L1097.59 93.5533Z" fill="url(#paint1_linear_374_692)"/>
<path d="M1115.22 93.8269C1117.9 92.8103 1120.53 91.292 1122.87 89.1543L1119.02 89.8242L1115.22 93.8269Z" fill="url(#paint2_linear_374_692)"/>
<path d="M1156.47 73.9354L1129.57 78.7176C1128.02 83.2017 1125.65 86.615 1122.87 89.1543L1124.86 88.8086C1126.26 89.75 1128.44 90.4321 1131.04 90.6736L1142.45 88.1919L1156.47 73.9354Z" fill="url(#paint3_linear_374_692)"/>
<path d="M1131.04 90.6736C1128.44 90.4321 1126.26 89.75 1124.86 88.8086L1127.55 91.4341L1131.04 90.6736Z" fill="url(#paint4_linear_374_692)"/>
<path d="M1142.45 88.1919L1131.04 90.6736C1134.07 90.9545 1137.65 90.64 1141.21 89.4454L1142.45 88.1919Z" fill="url(#paint5_linear_374_692)"/>
<path d="M1145.53 87.5207C1150.07 84.9375 1154.16 80.6259 1156.47 73.9354L1142.45 88.1919L1145.53 87.5207Z" fill="url(#paint6_linear_374_692)"/>
<path d="M1145.53 87.5207L1142.45 88.1919L1141.21 89.4454C1142.67 88.9573 1144.12 88.3222 1145.53 87.5207Z" fill="url(#paint7_linear_374_692)"/>
<path d="M1129.65 78.7694L1156.55 73.9872C1154.24 80.6776 1150.15 84.9893 1145.61 87.5725C1144.2 88.374 1142.75 89.0091 1141.29 89.4972C1137.73 90.6918 1134.14 91.0063 1131.12 90.7254L1127.63 91.4859L1114.95 94.2437L1111.83 94.9227C1111.68 94.9571 1111.53 94.99 1111.38 95.0214L1111.83 94.9227C1112.98 94.6616 1114.15 94.3167 1115.3 93.8787C1117.98 92.8621 1120.61 91.3438 1122.95 89.2061C1125.73 86.6668 1128.1 83.2535 1129.65 78.7694Z" fill="black" fill-opacity="0.5"/>
<g filter="url(#filter8_ii_374_692)">
<path d="M1093.73 116.779L1106.05 103.956M1140.86 68.869L1130.3 78.7926L1115.95 93.9019L1115.6 94.2669L1106.05 103.956M1106.05 103.956L1098.32 93.6283M1106.05 103.956L1114 114.121M1118.04 119.291L1114 114.121M1114 114.121L1144 111" stroke="#4E3331" stroke-width="4" stroke-linecap="round" stroke-linejoin="round"/>
</g>
<ellipse cx="358.5" cy="103.5" rx="5.5" ry="2.5" fill="black" fill-opacity="0.3"/>
<g filter="url(#filter9_ii_374_692)">
<path d="M349.163 6.99404L355.355 102.482C355.445 103.87 356.643 104.922 358.031 104.832L359.287 104.75C360.675 104.66 361.727 103.462 361.637 102.075L355.445 6.58667C355.355 5.19883 354.157 4.14672 352.769 4.23672L351.513 4.31819C350.125 4.40818 349.073 5.6062 349.163 6.99404Z" fill="#2D3356"/>
<path d="M349.163 6.99404L355.355 102.482C355.445 103.87 356.643 104.922 358.031 104.832L359.287 104.75C360.675 104.66 361.727 103.462 361.637 102.075L355.445 6.58667C355.355 5.19883 354.157 4.14672 352.769 4.23672L351.513 4.31819C350.125 4.40818 349.073 5.6062 349.163 6.99404Z" stroke="black"/>
</g>
<path d="M371.476 10.5938C365.194 11.0012 358.226 8.9297 355.527 7.84302L356.504 22.9201L357.482 37.9971C360.181 39.0838 367.15 41.1553 373.432 40.7479C379.714 40.3406 386.356 37.3864 388.892 35.9602C391.429 34.5341 398.071 31.5799 404.353 31.1725C410.635 30.7652 417.604 32.8367 420.303 33.9234L418.348 3.76926C415.649 2.68258 408.68 0.611064 402.398 1.01844C396.116 1.42582 389.473 4.37998 386.937 5.80614C384.401 7.2323 377.758 10.1865 371.476 10.5938Z" fill="#46C8DA"/>
<path d="M357.2 35.9603C363 38.4602 370.5 44 371.5 22C373.031 15.8937 386.074 35.3495 388.61 33.9234C393.5 33 402 33.9234 404.071 16C405.468 9.86153 417.322 30.086 420.021 31.1726L420.021 33.9234C417.322 32.8367 410.353 30.7652 404.071 31.1725C397.789 31.5799 391.146 34.5341 388.61 35.9603C386.074 37.3864 379.432 40.3406 373.15 40.748C366.867 41.1553 359.899 39.0838 357.2 37.9971L357.2 35.9603Z" fill="black" fill-opacity="0.05"/>
<path fill-rule="evenodd" clip-rule="evenodd" d="M385.893 23.3899C385.37 23.1711 384.941 22.7203 384.795 22.0358C384.648 21.3512 384.855 20.7644 385.243 20.3506C385.588 19.9821 386.027 19.7995 386.347 19.7311C386.666 19.6627 387.142 19.6495 387.608 19.8443C388.131 20.063 388.559 20.5139 388.706 21.1984C388.853 21.8829 388.646 22.4698 388.258 22.8836C387.913 23.2521 387.474 23.4346 387.154 23.503C386.835 23.5714 386.359 23.5847 385.893 23.3899Z" fill="white"/>
<path fill-rule="evenodd" clip-rule="evenodd" d="M393.48 17.8711C391.519 17.4691 388.864 17.5033 386.001 18.1164C383.137 18.7294 380.702 19.785 379.077 20.9545C377.373 22.1816 376.879 23.2769 377.03 23.9817C377.181 24.6865 378.08 25.4836 380.137 25.9054C382.098 26.3074 384.752 26.2732 387.616 25.6602C390.479 25.0471 392.915 23.9916 394.54 22.8221C396.244 21.595 396.738 20.4997 396.587 19.7948C396.436 19.09 395.537 18.2929 393.48 17.8711ZM397.565 19.5855C397.007 16.9815 391.74 15.9016 385.799 17.1734C379.858 18.4452 375.495 21.5871 376.052 24.191C376.61 26.795 381.877 27.8749 387.818 26.6032C393.758 25.3314 398.122 22.1895 397.565 19.5855Z" fill="white"/>
<path fill-rule="evenodd" clip-rule="evenodd" d="M386.877 13.9799C385.511 15.4271 384.18 17.6679 383.261 20.3659C382.341 23.0639 382.037 25.619 382.251 27.5497C382.475 29.5755 383.202 30.5229 383.911 30.7397C384.619 30.9566 385.794 30.5917 387.227 29.0733C388.592 27.6262 389.923 25.3854 390.843 22.6874C391.763 19.9894 392.067 17.4343 391.853 15.5035C391.628 13.4777 390.901 12.5304 390.193 12.3135C389.484 12.0966 388.31 12.4616 386.877 13.9799ZM390.507 11.3922C387.89 10.5909 384.221 14.4786 382.313 20.0757C380.405 25.6728 380.98 30.8597 383.597 31.6611C386.214 32.4624 389.883 28.5747 391.791 22.9776C393.699 17.3805 393.124 12.1935 390.507 11.3922Z" fill="white"/>
<path fill-rule="evenodd" clip-rule="evenodd" d="M380.206 17.9971C380.801 19.8462 382.124 22.0528 384.068 24.1378C386.012 26.2227 388.143 27.7223 389.982 28.4835C391.911 29.2822 393.132 29.1342 393.689 28.6463C394.247 28.1584 394.523 26.9963 393.898 25.0562C393.303 23.207 391.979 21.0004 390.035 18.9155C388.092 16.8306 385.96 15.331 384.122 14.5698C382.193 13.771 380.972 13.919 380.414 14.4069C379.857 14.8949 379.581 16.0569 380.206 17.9971ZM379.75 13.695C377.691 15.4976 379.29 20.4652 383.322 24.7906C387.355 29.1159 392.293 31.1609 394.353 29.3583C396.413 27.5557 394.814 22.588 390.781 18.2627C386.749 13.9374 381.81 11.8924 379.75 13.695Z" fill="white"/>
<defs>
<filter id="filter0_di_374_692" x="21.887" y="50.2433" width="256.249" height="169.56" filterUnits="userSpaceOnUse" color-interpolation-filters="sRGB">
<feFlood flood-opacity="0" result="BackgroundImageFix"/>
<feColorMatrix in="SourceAlpha" type="matrix" values="0 0 0 0 0 0 0 0 0 0 0 0 0 0 0 0 0 0 127 0" result="hardAlpha"/>
<feOffset/>
<feGaussianBlur stdDeviation="32"/>
<feComposite in2="hardAlpha" operator="out"/>
<feColorMatrix type="matrix" values="0 0 0 0 0.2375 0 0 0 0 0.2375 0 0 0 0 0.2375 0 0 0 0.05 0"/>
<feBlend mode="normal" in2="BackgroundImageFix" result="effect1_dropShadow_374_692"/>
<feBlend mode="normal" in="SourceGraphic" in2="effect1_dropShadow_374_692" result="shape"/>
<feColorMatrix in="SourceAlpha" type="matrix" values="0 0 0 0 0 0 0 0 0 0 0 0 0 0 0 0 0 0 127 0" result="hardAlpha"/>
<feOffset dy="8"/>
<feComposite in2="hardAlpha" operator="arithmetic" k2="-1" k3="1"/>
<feColorMatrix type="matrix" values="0 0 0 0 0 0 0 0 0 0 0 0 0 0 0 0 0 0 0.05 0"/>
<feBlend mode="normal" in2="shape" result="effect2_innerShadow_374_692"/>
</filter>
<filter id="filter1_di_374_692" x="835.621" y="34.6059" width="256.392" height="169.113" filterUnits="userSpaceOnUse" color-interpolation-filters="sRGB">
<feFlood flood-opacity="0" result="BackgroundImageFix"/>
<feColorMatrix in="SourceAlpha" type="matrix" values="0 0 0 0 0 0 0 0 0 0 0 0 0 0 0 0 0 0 127 0" result="hardAlpha"/>
<feOffset/>
<feGaussianBlur stdDeviation="32"/>
<feComposite in2="hardAlpha" operator="out"/>
<feColorMatrix type="matrix" values="0 0 0 0 0.2375 0 0 0 0 0.2375 0 0 0 0 0.2375 0 0 0 0.05 0"/>
<feBlend mode="normal" in2="BackgroundImageFix" result="effect1_dropShadow_374_692"/>
<feBlend mode="normal" in="SourceGraphic" in2="effect1_dropShadow_374_692" result="shape"/>
<feColorMatrix in="SourceAlpha" type="matrix" values="0 0 0 0 0 0 0 0 0 0 0 0 0 0 0 0 0 0 127 0" result="hardAlpha"/>
<feOffset dy="8"/>
<feComposite in2="hardAlpha" operator="arithmetic" k2="-1" k3="1"/>
<feColorMatrix type="matrix" values="0 0 0 0 0 0 0 0 0 0 0 0 0 0 0 0 0 0 0.05 0"/>
<feBlend mode="normal" in2="shape" result="effect2_innerShadow_374_692"/>
</filter>
<filter id="filter2_di_374_692" x="1250.62" y="84.6059" width="256.392" height="169.113" filterUnits="userSpaceOnUse" color-interpolation-filters="sRGB">
<feFlood flood-opacity="0" result="BackgroundImageFix"/>
<feColorMatrix in="SourceAlpha" type="matrix" values="0 0 0 0 0 0 0 0 0 0 0 0 0 0 0 0 0 0 127 0" result="hardAlpha"/>
<feOffset/>
<feGaussianBlur stdDeviation="32"/>
<feComposite in2="hardAlpha" operator="out"/>
<feColorMatrix type="matrix" values="0 0 0 0 0.2375 0 0 0 0 0.2375 0 0 0 0 0.2375 0 0 0 0.05 0"/>
<feBlend mode="normal" in2="BackgroundImageFix" result="effect1_dropShadow_374_692"/>
<feBlend mode="normal" in="SourceGraphic" in2="effect1_dropShadow_374_692" result="shape"/>
<feColorMatrix in="SourceAlpha" type="matrix" values="0 0 0 0 0 0 0 0 0 0 0 0 0 0 0 0 0 0 127 0" result="hardAlpha"/>
<feOffset dy="8"/>
<feComposite in2="hardAlpha" operator="arithmetic" k2="-1" k3="1"/>
<feColorMatrix type="matrix" values="0 0 0 0 0 0 0 0 0 0 0 0 0 0 0 0 0 0 0.05 0"/>
<feBlend mode="normal" in2="shape" result="effect2_innerShadow_374_692"/>
</filter>
<filter id="filter3_di_374_692" x="956.698" y="128.918" width="370.39" height="221.047" filterUnits="userSpaceOnUse" color-interpolation-filters="sRGB">
<feFlood flood-opacity="0" result="BackgroundImageFix"/>
<feColorMatrix in="SourceAlpha" type="matrix" values="0 0 0 0 0 0 0 0 0 0 0 0 0 0 0 0 0 0 127 0" result="hardAlpha"/>
<feOffset/>
<feGaussianBlur stdDeviation="32"/>
<feComposite in2="hardAlpha" operator="out"/>
<feColorMatrix type="matrix" values="0 0 0 0 0.2375 0 0 0 0 0.2375 0 0 0 0 0.2375 0 0 0 0.05 0"/>
<feBlend mode="normal" in2="BackgroundImageFix" result="effect1_dropShadow_374_692"/>
<feBlend mode="normal" in="SourceGraphic" in2="effect1_dropShadow_374_692" result="shape"/>
<feColorMatrix in="SourceAlpha" type="matrix" values="0 0 0 0 0 0 0 0 0 0 0 0 0 0 0 0 0 0 127 0" result="hardAlpha"/>
<feOffset dy="8"/>
<feComposite in2="hardAlpha" operator="arithmetic" k2="-1" k3="1"/>
<feColorMatrix type="matrix" values="0 0 0 0 0 0 0 0 0 0 0 0 0 0 0 0 0 0 0.05 0"/>
<feBlend mode="normal" in2="shape" result="effect2_innerShadow_374_692"/>
</filter>
<filter id="filter4_di_374_692" x="249.312" y="125.413" width="256.279" height="178.315" filterUnits="userSpaceOnUse" color-interpolation-filters="sRGB">
<feFlood flood-opacity="0" result="BackgroundImageFix"/>
<feColorMatrix in="SourceAlpha" type="matrix" values="0 0 0 0 0 0 0 0 0 0 0 0 0 0 0 0 0 0 127 0" result="hardAlpha"/>
<feOffset/>
<feGaussianBlur stdDeviation="32"/>
<feComposite in2="hardAlpha" operator="out"/>
<feColorMatrix type="matrix" values="0 0 0 0 0.2375 0 0 0 0 0.2375 0 0 0 0 0.2375 0 0 0 0.05 0"/>
<feBlend mode="normal" in2="BackgroundImageFix" result="effect1_dropShadow_374_692"/>
<feBlend mode="normal" in="SourceGraphic" in2="effect1_dropShadow_374_692" result="shape"/>
<feColorMatrix in="SourceAlpha" type="matrix" values="0 0 0 0 0 0 0 0 0 0 0 0 0 0 0 0 0 0 127 0" result="hardAlpha"/>
<feOffset dy="8"/>
<feComposite in2="hardAlpha" operator="arithmetic" k2="-1" k3="1"/>
<feColorMatrix type="matrix" values="0 0 0 0 0 0 0 0 0 0 0 0 0 0 0 0 0 0 0.05 0"/>
<feBlend mode="normal" in2="shape" result="effect2_innerShadow_374_692"/>
</filter>
<filter id="filter5_di_374_692" x="401.909" y="20.2873" width="256.711" height="177.186" filterUnits="userSpaceOnUse" color-interpolation-filters="sRGB">
<feFlood flood-opacity="0" result="BackgroundImageFix"/>
<feColorMatrix in="SourceAlpha" type="matrix" values="0 0 0 0 0 0 0 0 0 0 0 0 0 0 0 0 0 0 127 0" result="hardAlpha"/>
<feOffset/>
<feGaussianBlur stdDeviation="32"/>
<feComposite in2="hardAlpha" operator="out"/>
<feColorMatrix type="matrix" values="0 0 0 0 0.2375 0 0 0 0 0.2375 0 0 0 0 0.2375 0 0 0 0.05 0"/>
<feBlend mode="normal" in2="BackgroundImageFix" result="effect1_dropShadow_374_692"/>
<feBlend mode="normal" in="SourceGraphic" in2="effect1_dropShadow_374_692" result="shape"/>
<feColorMatrix in="SourceAlpha" type="matrix" values="0 0 0 0 0 0 0 0 0 0 0 0 0 0 0 0 0 0 127 0" result="hardAlpha"/>
<feOffset dy="8"/>
<feComposite in2="hardAlpha" operator="arithmetic" k2="-1" k3="1"/>
<feColorMatrix type="matrix" values="0 0 0 0 0 0 0 0 0 0 0 0 0 0 0 0 0 0 0.05 0"/>
<feBlend mode="normal" in2="shape" result="effect2_innerShadow_374_692"/>
</filter>
<filter id="filter6_d_374_692" x="1076" y="99.381" width="95" height="29" filterUnits="userSpaceOnUse" color-interpolation-filters="sRGB">
<feFlood flood-opacity="0" result="BackgroundImageFix"/>
<feColorMatrix in="SourceAlpha" type="matrix" values="0 0 0 0 0 0 0 0 0 0 0 0 0 0 0 0 0 0 127 0" result="hardAlpha"/>
<feOffset dy="4"/>
<feColorMatrix type="matrix" values="0 0 0 0 0 0 0 0 0 0 0 0 0 0 0 0 0 0 0.1 0"/>
<feBlend mode="normal" in2="BackgroundImageFix" result="effect1_dropShadow_374_692"/>
<feBlend mode="normal" in="SourceGraphic" in2="effect1_dropShadow_374_692" result="shape"/>
</filter>
<filter id="filter7_ii_374_692" x="1098.5" y="62.0118" width="70.5349" height="54.7222" filterUnits="userSpaceOnUse" color-interpolation-filters="sRGB">
<feFlood flood-opacity="0" result="BackgroundImageFix"/>
<feBlend mode="normal" in="SourceGraphic" in2="BackgroundImageFix" result="shape"/>
<feColorMatrix in="SourceAlpha" type="matrix" values="0 0 0 0 0 0 0 0 0 0 0 0 0 0 0 0 0 0 127 0" result="hardAlpha"/>
<feOffset dx="-1" dy="-2"/>
<feComposite in2="hardAlpha" operator="arithmetic" k2="-1" k3="1"/>
<feColorMatrix type="matrix" values="0 0 0 0 0 0 0 0 0 0 0 0 0 0 0 0 0 0 0.25 0"/>
<feBlend mode="normal" in2="shape" result="effect1_innerShadow_374_692"/>
<feColorMatrix in="SourceAlpha" type="matrix" values="0 0 0 0 0 0 0 0 0 0 0 0 0 0 0 0 0 0 127 0" result="hardAlpha"/>
<feOffset dx="1" dy="2"/>
<feComposite in2="hardAlpha" operator="arithmetic" k2="-1" k3="1"/>
<feColorMatrix type="matrix" values="0 0 0 0 1 0 0 0 0 1 0 0 0 0 1 0 0 0 0.05 0"/>
<feBlend mode="normal" in2="effect1_innerShadow_374_692" result="effect2_innerShadow_374_692"/>
</filter>
<filter id="filter8_ii_374_692" x="1091.73" y="66.869" width="54.2743" height="54.4223" filterUnits="userSpaceOnUse" color-interpolation-filters="sRGB">
<feFlood flood-opacity="0" result="BackgroundImageFix"/>
<feBlend mode="normal" in="SourceGraphic" in2="BackgroundImageFix" result="shape"/>
<feColorMatrix in="SourceAlpha" type="matrix" values="0 0 0 0 0 0 0 0 0 0 0 0 0 0 0 0 0 0 127 0" result="hardAlpha"/>
<feOffset dx="-1" dy="-2"/>
<feComposite in2="hardAlpha" operator="arithmetic" k2="-1" k3="1"/>
<feColorMatrix type="matrix" values="0 0 0 0 0 0 0 0 0 0 0 0 0 0 0 0 0 0 0.25 0"/>
<feBlend mode="normal" in2="shape" result="effect1_innerShadow_374_692"/>
<feColorMatrix in="SourceAlpha" type="matrix" values="0 0 0 0 0 0 0 0 0 0 0 0 0 0 0 0 0 0 127 0" result="hardAlpha"/>
<feOffset dx="1" dy="2"/>
<feComposite in2="hardAlpha" operator="arithmetic" k2="-1" k3="1"/>
<feColorMatrix type="matrix" values="0 0 0 0 1 0 0 0 0 1 0 0 0 0 1 0 0 0 0.05 0"/>
<feBlend mode="normal" in2="effect1_innerShadow_374_692" result="effect2_innerShadow_374_692"/>
</filter>
<filter id="filter9_ii_374_692" x="349.158" y="4.23135" width="12.485" height="100.606" filterUnits="userSpaceOnUse" color-interpolation-filters="sRGB">
<feFlood flood-opacity="0" result="BackgroundImageFix"/>
<feBlend mode="normal" in="SourceGraphic" in2="BackgroundImageFix" result="shape"/>
<feColorMatrix in="SourceAlpha" type="matrix" values="0 0 0 0 0 0 0 0 0 0 0 0 0 0 0 0 0 0 127 0" result="hardAlpha"/>
<feOffset dx="-4"/>
<feComposite in2="hardAlpha" operator="arithmetic" k2="-1" k3="1"/>
<feColorMatrix type="matrix" values="0 0 0 0 1 0 0 0 0 1 0 0 0 0 1 0 0 0 0.15 0"/>
<feBlend mode="normal" in2="shape" result="effect1_innerShadow_374_692"/>
<feColorMatrix in="SourceAlpha" type="matrix" values="0 0 0 0 0 0 0 0 0 0 0 0 0 0 0 0 0 0 127 0" result="hardAlpha"/>
<feOffset dx="4"/>
<feComposite in2="hardAlpha" operator="arithmetic" k2="-1" k3="1"/>
<feColorMatrix type="matrix" values="0 0 0 0 0 0 0 0 0 0 0 0 0 0 0 0 0 0 0.15 0"/>
<feBlend mode="normal" in2="effect1_innerShadow_374_692" result="effect2_innerShadow_374_692"/>
</filter>
<linearGradient id="paint0_linear_374_692" x1="1100.4" y1="94.8264" x2="1164.79" y2="82.2018" gradientUnits="userSpaceOnUse">
<stop stop-color="#1EFF93"/>
<stop offset="0.270833" stop-color="#127AC6"/>
<stop offset="0.511451" stop-color="#1EFF93"/>
<stop offset="0.776042" stop-color="#0978E0"/>
<stop offset="1" stop-color="#1EFF93"/>
</linearGradient>
<linearGradient id="paint1_linear_374_692" x1="1100.4" y1="94.8264" x2="1164.79" y2="82.2018" gradientUnits="userSpaceOnUse">
<stop stop-color="#1EFF93"/>
<stop offset="0.270833" stop-color="#127AC6"/>
<stop offset="0.511451" stop-color="#1EFF93"/>
<stop offset="0.776042" stop-color="#0978E0"/>
<stop offset="1" stop-color="#1EFF93"/>
</linearGradient>
<linearGradient id="paint2_linear_374_692" x1="1100.4" y1="94.8264" x2="1164.79" y2="82.2018" gradientUnits="userSpaceOnUse">
<stop stop-color="#1EFF93"/>
<stop offset="0.270833" stop-color="#127AC6"/>
<stop offset="0.511451" stop-color="#1EFF93"/>
<stop offset="0.776042" stop-color="#0978E0"/>
<stop offset="1" stop-color="#1EFF93"/>
</linearGradient>
<linearGradient id="paint3_linear_374_692" x1="1100.4" y1="94.8264" x2="1164.79" y2="82.2018" gradientUnits="userSpaceOnUse">
<stop stop-color="#1EFF93"/>
<stop offset="0.270833" stop-color="#127AC6"/>
<stop offset="0.511451" stop-color="#1EFF93"/>
<stop offset="0.776042" stop-color="#0978E0"/>
<stop offset="1" stop-color="#1EFF93"/>
</linearGradient>
<linearGradient id="paint4_linear_374_692" x1="1100.4" y1="94.8264" x2="1164.79" y2="82.2018" gradientUnits="userSpaceOnUse">
<stop stop-color="#1EFF93"/>
<stop offset="0.270833" stop-color="#127AC6"/>
<stop offset="0.511451" stop-color="#1EFF93"/>
<stop offset="0.776042" stop-color="#0978E0"/>
<stop offset="1" stop-color="#1EFF93"/>
</linearGradient>
<linearGradient id="paint5_linear_374_692" x1="1100.4" y1="94.8264" x2="1164.79" y2="82.2018" gradientUnits="userSpaceOnUse">
<stop stop-color="#1EFF93"/>
<stop offset="0.270833" stop-color="#127AC6"/>
<stop offset="0.511451" stop-color="#1EFF93"/>
<stop offset="0.776042" stop-color="#0978E0"/>
<stop offset="1" stop-color="#1EFF93"/>
</linearGradient>
<linearGradient id="paint6_linear_374_692" x1="1100.4" y1="94.8264" x2="1164.79" y2="82.2018" gradientUnits="userSpaceOnUse">
<stop stop-color="#1EFF93"/>
<stop offset="0.270833" stop-color="#127AC6"/>
<stop offset="0.511451" stop-color="#1EFF93"/>
<stop offset="0.776042" stop-color="#0978E0"/>
<stop offset="1" stop-color="#1EFF93"/>
</linearGradient>
<linearGradient id="paint7_linear_374_692" x1="1100.4" y1="94.8264" x2="1164.79" y2="82.2018" gradientUnits="userSpaceOnUse">
<stop stop-color="#1EFF93"/>
<stop offset="0.270833" stop-color="#127AC6"/>
<stop offset="0.511451" stop-color="#1EFF93"/>
<stop offset="0.776042" stop-color="#0978E0"/>
<stop offset="1" stop-color="#1EFF93"/>
</linearGradient>
</defs>
</svg>
