<svg width="306" height="154" viewBox="0 0 306 154" fill="none" xmlns="http://www.w3.org/2000/svg">
<ellipse cx="155" cy="76.5" rx="54" ry="54.5" fill="#FFA151"/>
<mask id="mask0_264_875" style="mask-type:alpha" maskUnits="userSpaceOnUse" x="101" y="22" width="108" height="109">
<path d="M209 76.5C209 106.6 184.823 131 155 131C125.177 131 101 106.6 101 76.5C101 46.4005 125.177 22 155 22C184.823 22 209 46.4005 209 76.5Z" fill="#C4C4C4"/>
</mask>
<g mask="url(#mask0_264_875)">
<path fill-rule="evenodd" clip-rule="evenodd" d="M186.327 -86.7173C186.748 -82.0407 183.333 -77.9049 178.699 -77.4797L167.815 -76.4811L169.776 -75.5842C173.249 -73.9959 175.232 -70.2515 174.611 -66.4548C173.99 -62.658 170.92 -59.7555 167.125 -59.3779L89.4321 -51.6465C84.8018 -51.1858 80.678 -54.6006 80.2215 -59.2739C79.7649 -63.9471 83.1485 -68.109 87.7788 -68.5698L134.191 -73.1883L131.787 -74.2876C128.303 -75.8808 126.32 -79.6427 126.957 -83.4489C127.595 -87.2552 130.693 -90.1505 134.502 -90.5L177.174 -94.4152C181.808 -94.8404 185.905 -91.3939 186.327 -86.7173ZM18.3618 -75.1433C22.3586 -77.5475 27.5297 -76.2264 29.9118 -72.1927L46.6747 -43.8074C48.2264 -41.1799 48.2601 -37.9137 46.763 -35.2541C45.2659 -32.5945 42.4687 -30.9515 39.4379 -30.9515H14.4647C9.81184 -30.9515 6.04 -34.7583 6.04 -39.4542C6.04 -44.1501 9.81184 -47.9569 14.4647 -47.9569H24.6092L15.4383 -63.4863C13.0561 -67.5201 14.3651 -72.7391 18.3618 -75.1433ZM220.248 -62.3571C221.478 -57.8285 218.838 -53.1504 214.351 -51.9083L201.399 -48.323L211.836 -44.5137C215.46 -43.1912 217.732 -39.5557 217.355 -35.6853C216.978 -31.8149 214.047 -28.6962 210.237 -28.1117L149.623 -18.8131C145.023 -18.1074 140.727 -21.2989 140.028 -25.9415C139.329 -30.584 142.491 -34.9196 147.091 -35.6253L174.938 -39.8972L170.707 -41.4412C167.255 -42.7011 165.009 -46.0721 165.154 -49.7742C165.3 -53.4762 167.804 -56.657 171.344 -57.637L209.895 -68.308C214.382 -69.5501 219.017 -66.8857 220.248 -62.3571ZM53.3788 -48.3004C54.8306 -51.5863 58.1744 -53.5943 61.7284 -53.3145L130.101 -47.9311C134.74 -47.5659 138.207 -43.4745 137.845 -38.7929C137.483 -34.1112 133.429 -30.6121 128.79 -30.9773L84.0417 -34.5007L97.4305 -21.6302C99.9249 -19.2324 100.722 -15.5434 99.4422 -12.3154C98.1627 -9.0874 95.0649 -6.97074 91.6201 -6.97074H30.0368C25.384 -6.97074 21.6122 -10.7775 21.6122 -15.4734C21.6122 -20.1693 25.384 -23.9761 30.0368 -23.9761H70.5598L55.2628 -38.6808C52.6815 -41.1621 51.927 -45.0145 53.3788 -48.3004ZM121.577 -8.72232C122.896 -12.2042 126.308 -14.4129 129.994 -14.1703L196.912 -9.76569C201.555 -9.46008 205.073 -5.41365 204.77 -0.727722C204.467 3.95821 200.458 7.50917 195.815 7.20357L156.066 4.58727L166.165 12.5844C168.886 14.7386 170.026 18.3516 169.04 21.6966C168.055 25.0417 165.145 27.4395 161.7 27.744L95.2765 33.6168C90.6415 34.0266 86.5548 30.5666 86.1488 25.8886C85.7428 21.2107 89.171 17.0862 93.8061 16.6764L138.992 12.6813L124.245 1.00371C121.339 -1.29737 120.258 -5.24043 121.577 -8.72232ZM38.3243 2.7095C39.1605 7.32891 36.128 11.7579 31.551 12.6019L-18.8759 21.9005C-23.4529 22.7445 -27.8412 19.6839 -28.6775 15.0645C-29.5138 10.4451 -26.4813 6.01611 -21.9042 5.17211L28.5226 -4.1265C33.0997 -4.9705 37.488 -1.90992 38.3243 2.7095ZM85.8296 4.27718C87.6086 8.61626 85.5656 13.5893 81.2663 15.3848L57.6832 25.2336L89.5712 38.8496C93.0834 40.3493 95.1594 44.0432 94.6324 47.8553C94.1054 51.6673 91.1068 54.6466 87.322 55.1187L1.00775 65.8855C-3.60992 66.4616 -7.81594 63.1505 -8.38667 58.4901C-8.95739 53.8296 -5.67669 49.5847 -1.05902 49.0087L54.0273 42.1372L32.5752 32.9773C29.4472 31.6416 27.4198 28.5409 27.4332 25.113C27.4466 21.6852 29.4983 18.6007 32.6366 17.29L74.8239 -0.328423C79.1232 -2.1239 84.0506 -0.0619049 85.8296 4.27718ZM230.7 23.7488C231.458 28.3355 228.425 32.676 223.909 33.5099C223.972 33.4984 224.007 33.4914 224.008 33.4929C224.008 33.497 223.738 33.5669 223.04 33.7874C222.201 34.0521 221.06 34.4309 219.667 34.9077C216.89 35.8582 213.255 37.1494 209.329 38.5833C207.256 39.3405 205.119 40.1311 202.999 40.9264L213.332 47.2359C216.18 48.9749 217.746 52.2431 217.329 55.576C216.912 58.9088 214.59 61.6814 211.403 62.6513L166.377 76.3545C161.923 77.7103 157.222 75.1646 155.879 70.6687C154.536 66.1728 157.058 61.4291 161.513 60.0733L188.404 51.8893L179.674 46.5589C176.97 44.9075 175.409 41.8673 175.632 38.6852C175.855 35.503 177.823 32.7144 180.731 31.463C186.455 28.9992 195.647 25.4959 203.595 22.5929C207.593 21.1327 211.34 19.801 214.255 18.8033C215.708 18.306 216.991 17.8793 218.01 17.5575C218.775 17.3161 220.022 16.925 221.005 16.7596C225.595 15.9876 229.935 19.1168 230.7 23.7488ZM161.723 44.1143C163.127 48.5912 160.669 53.3693 156.233 54.7865L122.117 65.6858L130.846 67.1705C134.726 67.8305 137.637 71.1134 137.857 75.0783C138.078 79.0433 135.549 82.6343 131.767 83.7285L55.6356 105.752C51.1629 107.045 46.4978 104.435 45.2158 99.9207C43.9338 95.4066 46.5204 90.6983 50.9931 89.4045L91.4212 77.7095L84.8885 76.5983C81.051 75.9456 78.1559 72.725 77.8845 68.8069C77.6131 64.8889 80.036 61.293 83.7461 60.1077L151.149 38.5741C155.584 37.1569 160.319 39.6373 161.723 44.1143ZM54.9054 75.6517C56.5334 80.0508 54.3197 84.9489 49.961 86.5919L9.71331 101.763C5.3546 103.406 0.50145 101.172 -1.1265 96.7731C-2.75446 92.374 -0.540733 87.4759 3.81798 85.8329L44.0656 70.6615C48.4243 69.0184 53.2775 71.2527 54.9054 75.6517ZM171.946 84.5476C173.403 89.0072 171.002 93.8147 166.584 95.2855L142.574 103.277L154.608 109.63C157.787 111.309 159.565 114.835 159.036 118.417C158.508 121.998 155.79 124.849 152.265 125.52L93.1814 136.766C88.6092 137.636 84.2037 134.601 83.3414 129.986C82.4791 125.371 85.4866 120.925 90.0589 120.055L125.297 113.348L117.12 109.031C114.121 107.447 112.352 104.207 112.628 100.803C112.904 97.3983 115.172 94.4913 118.386 93.4215L161.307 79.1357C165.725 77.665 170.489 80.088 171.946 84.5476ZM224.362 97.5458C225.332 102.139 222.429 106.655 217.878 107.634L190.452 113.533L202.984 123.935C205.327 125.88 206.453 128.946 205.932 131.962C205.411 134.979 203.323 137.479 200.466 138.509L169.132 149.804C164.751 151.383 159.93 149.079 158.365 144.657C156.8 140.234 159.083 135.369 163.465 133.789L180.801 127.54L166.249 115.461C163.751 113.387 162.649 110.052 163.416 106.88C164.182 103.708 166.68 101.259 169.845 100.578L214.366 91.0021C218.917 90.0234 223.392 92.953 224.362 97.5458Z" fill="#FF3B8C"/>
</g>
<path fill-rule="evenodd" clip-rule="evenodd" d="M111.516 44.1787C113.672 76.3528 137.359 123.816 206.387 93.295C199.371 115.176 179.016 130.999 155 130.999C125.177 130.999 101 106.598 101 76.4989C101 64.3998 104.906 53.2215 111.516 44.1787Z" fill="#01050C" fill-opacity="0.35"/>
<path d="M58.1664 92.8076V58.7928C58.1664 55.5807 58.3821 52.033 58.8136 48.1498L26.5248 92.8076H58.1664ZM86.7157 92.8076V103.091C86.7157 104.05 86.4041 104.889 85.7809 105.608C85.1576 106.279 84.2707 106.615 83.1201 106.615H73.6276V132H58.1664V106.615H14.2996C13.101 106.615 12.0463 106.255 11.1354 105.536C10.2245 104.769 9.64924 103.834 9.40953 102.732L7.5398 93.7424L56.8 27.9423H73.6276V92.8076H86.7157Z" fill="white"/>
<path d="M267.177 93.5073V59.4926C267.177 56.2804 267.393 52.7328 267.825 48.8495L235.536 93.5073H267.177ZM295.727 93.5073V103.791C295.727 104.75 295.415 105.589 294.792 106.308C294.169 106.979 293.282 107.315 292.131 107.315H282.639V132.7H267.177V107.315H223.311C222.112 107.315 221.057 106.955 220.147 106.236C219.236 105.469 218.66 104.534 218.421 103.431L216.551 94.4421L265.811 28.642H282.639V93.5073H295.727Z" fill="white"/>
</svg>