<svg width="157" height="159" viewBox="0 0 157 159" fill="none" xmlns="http://www.w3.org/2000/svg">
<ellipse cx="78.5" cy="79.7732" rx="78.5" ry="79.2269" fill="#FFA151"/>
<mask id="mask0_264_876" style="mask-type:alpha" maskUnits="userSpaceOnUse" x="0" y="0" width="157" height="159">
<path d="M157 79.7732C157 123.529 121.854 159 78.5 159C35.1456 159 0 123.529 0 79.7732C0 36.0175 35.1456 0.546387 78.5 0.546387C121.854 0.546387 157 36.0175 157 79.7732Z" fill="#C4C4C4"/>
</mask>
<g mask="url(#mask0_264_876)">
<path fill-rule="evenodd" clip-rule="evenodd" d="M124.039 -157.497C124.651 -150.698 119.687 -144.686 112.951 -144.068L97.1281 -142.616L99.9791 -141.312C105.028 -139.004 107.911 -133.56 107.008 -128.041C106.105 -122.522 101.642 -118.302 96.1261 -117.753L-16.8169 -106.514C-23.5481 -105.844 -29.5428 -110.809 -30.2064 -117.602C-30.8701 -124.396 -25.9515 -130.446 -19.2203 -131.116L48.2493 -137.83L44.7549 -139.428C39.6905 -141.744 36.8075 -147.212 37.7339 -152.746C38.6603 -158.279 43.1636 -162.488 48.7009 -162.996L110.734 -168.687C117.47 -169.305 123.427 -164.295 124.039 -157.497ZM-120.132 -140.672C-114.322 -144.166 -106.805 -142.246 -103.342 -136.382L-78.9735 -95.1184C-76.7178 -91.2988 -76.6688 -86.5507 -78.8452 -82.6845C-81.0215 -78.8183 -85.0878 -76.4298 -89.4936 -76.4298H-125.797C-132.561 -76.4298 -138.044 -81.9637 -138.044 -88.7902C-138.044 -95.6166 -132.561 -101.151 -125.797 -101.151H-111.05L-124.382 -123.726C-127.845 -129.59 -125.942 -137.177 -120.132 -140.672ZM173.35 -122.084C175.139 -115.501 171.302 -108.7 164.779 -106.895L145.949 -101.683L161.122 -96.1452C166.39 -94.2226 169.694 -88.9378 169.145 -83.3113C168.597 -77.6848 164.336 -73.1512 158.798 -72.3016L70.6828 -58.7841C63.9958 -57.7583 57.751 -62.3978 56.7346 -69.1467C55.7181 -75.8956 60.315 -82.1983 67.002 -83.2241L107.483 -89.4342L101.333 -91.6787C96.3149 -93.5103 93.0493 -98.4107 93.2608 -103.792C93.4723 -109.174 97.1124 -113.798 102.259 -115.223L158.3 -130.735C164.823 -132.541 171.561 -128.668 173.35 -122.084ZM-69.2277 -101.65C-67.1172 -106.427 -62.2563 -109.346 -57.0899 -108.939L42.3035 -101.113C49.0468 -100.582 54.0869 -94.6346 53.5608 -87.8288C53.0347 -81.0231 47.1417 -75.9363 40.3984 -76.4673L-24.653 -81.5892L-5.18963 -62.8794C-1.56349 -59.3937 -0.405341 -54.031 -2.26526 -49.3384C-4.1252 -44.6459 -8.62843 -41.5689 -13.6362 -41.5689H-103.16C-109.924 -41.5689 -115.407 -47.1028 -115.407 -53.9292C-115.407 -60.7556 -109.924 -66.2895 -103.16 -66.2895H-44.2517L-66.4889 -87.6658C-70.2414 -91.273 -71.3382 -96.8733 -69.2277 -101.65ZM29.9117 -44.1151C31.8293 -49.1768 36.7901 -52.3875 42.148 -52.0349L139.427 -45.6319C146.176 -45.1876 151.291 -39.3053 150.851 -32.4934C150.41 -25.6814 144.582 -20.5194 137.833 -20.9636L80.0497 -24.7669L94.7306 -13.1415C98.6851 -10.01 100.342 -4.75771 98.9099 0.104996C97.4776 4.96769 93.2468 8.45337 88.2395 8.8961L-8.32085 17.4335C-15.0588 18.0292 -20.9996 12.9993 -21.5899 6.19893C-22.1801 -0.601445 -17.1964 -6.5972 -10.4584 -7.19294L55.2284 -13.0006L33.7911 -29.9764C29.5669 -33.3215 27.9941 -39.0535 29.9117 -44.1151ZM-91.1126 -27.4967C-89.8969 -20.7814 -94.3053 -14.343 -100.959 -13.1161L-174.265 0.401388C-180.918 1.6283 -187.298 -2.82088 -188.513 -9.53615C-189.729 -16.2514 -185.321 -22.6898 -178.667 -23.9167L-105.361 -37.4342C-98.7076 -38.6611 -92.3282 -34.2119 -91.1126 -27.4967ZM-22.0539 -25.2177C-19.4677 -18.91 -22.4377 -11.6807 -28.6876 -9.07058L-62.9704 5.24675L-16.6147 25.0404C-11.509 27.2205 -8.49107 32.5903 -9.25719 38.1319C-10.0233 43.6735 -14.3823 48.0045 -19.8844 48.6908L-145.36 64.3426C-152.072 65.1799 -158.187 60.3666 -159.016 53.5917C-159.846 46.8169 -155.077 40.6459 -148.364 39.8086L-68.285 29.8195L-99.47 16.5037C-104.017 14.5621 -106.964 10.0545 -106.945 5.07142C-106.925 0.0883378 -103.943 -4.39559 -99.3807 -6.3009L-38.0529 -31.9129C-31.803 -34.523 -24.64 -31.5255 -22.0539 -25.2177ZM188.545 3.08822C189.646 9.756 185.238 16.0657 178.673 17.2781C178.764 17.2613 178.815 17.2511 178.816 17.2533C178.817 17.2592 178.425 17.3608 177.409 17.6814C176.19 18.0662 174.531 18.6168 172.506 19.31C168.469 20.6918 163.184 22.5688 157.477 24.6533C154.463 25.754 151.357 26.9033 148.276 28.0594L163.297 37.2316C167.437 39.7596 169.714 44.5106 169.108 49.3556C168.501 54.2005 165.126 58.231 160.493 59.6409L95.0387 79.5614C88.5629 81.5322 81.7302 77.8316 79.7774 71.2959C77.8247 64.7602 81.4913 57.8642 87.9671 55.8934L127.059 43.9962L114.369 36.2473C110.438 33.8467 108.168 29.4272 108.492 24.8013C108.816 20.1754 111.678 16.1216 115.904 14.3024C124.226 10.7208 137.588 5.62806 149.142 1.40791C154.954 -0.714797 160.401 -2.65063 164.639 -4.10109C166.752 -4.82404 168.615 -5.44433 170.097 -5.91202C171.209 -6.26306 173.022 -6.83147 174.452 -7.07191C181.123 -8.19417 187.433 -3.64533 188.545 3.08822ZM88.2724 32.6936C90.3137 39.2017 86.7409 46.1477 80.2925 48.2078L30.6979 64.0523L43.3863 66.2106C49.0268 67.17 53.258 71.9423 53.5786 77.7062C53.8993 83.4701 50.2239 88.6903 44.7253 90.2809L-65.947 122.296C-72.449 124.177 -79.2307 120.382 -81.0943 113.82C-82.9579 107.257 -79.1978 100.413 -72.6958 98.5321L-13.9254 81.5312L-23.422 79.9158C-29.0006 78.9669 -33.2092 74.2851 -33.6037 68.5894C-33.9983 62.8937 -30.4761 57.6664 -25.0826 55.9433L72.9005 24.6398C79.349 22.5796 86.2312 26.1855 88.2724 32.6936ZM-67.0085 78.5397C-64.6419 84.9347 -67.86 92.055 -74.1963 94.4435L-132.704 116.498C-139.041 118.887 -146.096 115.639 -148.462 109.244C-150.829 102.849 -147.611 95.7286 -141.274 93.3401L-82.7663 71.2854C-76.4301 68.8969 -69.375 72.1448 -67.0085 78.5397ZM103.134 91.4717C105.252 97.9547 101.762 104.943 95.3386 107.081L60.435 118.699L77.9301 127.935C82.5515 130.374 85.135 135.501 84.3671 140.707C83.5992 145.914 79.6485 150.058 74.5233 151.033L-11.3665 167.381C-18.0132 168.646 -24.4175 164.234 -25.671 157.526C-26.9245 150.817 -22.5524 144.354 -15.9058 143.089L35.3205 133.339L23.4324 127.063C19.073 124.761 16.5013 120.05 16.9027 115.102C17.3042 110.153 20.6009 105.927 25.2731 104.372L87.6672 83.6044C94.0907 81.4664 101.015 84.9887 103.134 91.4717ZM179.331 110.367C180.741 117.044 176.521 123.61 169.906 125.032L130.036 133.608L148.254 148.729C151.66 151.556 153.297 156.014 152.539 160.398C151.782 164.783 148.747 168.419 144.594 169.916L99.0437 186.335C92.674 188.631 85.666 185.281 83.391 178.852C81.116 172.424 84.4354 165.351 90.8051 163.055L116.007 153.97L94.8524 136.411C91.2201 133.396 89.6193 128.548 90.7333 123.936C91.8473 119.325 95.4793 115.765 100.079 114.775L164.801 100.855C171.416 99.4318 177.921 103.691 179.331 110.367Z" fill="#FF3B8C"/>
</g>
<path fill-rule="evenodd" clip-rule="evenodd" d="M15.2873 32.7876C18.4208 79.5592 52.855 148.557 153.201 104.189C143.002 135.996 113.413 158.999 78.5 158.999C35.1456 158.999 0 123.528 0 79.7719C0 62.1832 5.67897 45.9331 15.2873 32.7876Z" fill="#01050C" fill-opacity="0.35"/>
</svg>
