<svg width="277" height="278" viewBox="0 0 277 278" fill="none" xmlns="http://www.w3.org/2000/svg">
<g filter="url(#filter0_dd_374_752)">
<circle cx="138.5" cy="138.929" r="106.5" fill="#3937B4"/>
<mask id="mask0_374_752" style="mask-type:alpha" maskUnits="userSpaceOnUse" x="32" y="32" width="213" height="214">
<circle cx="138.5" cy="138.929" r="106.5" fill="#C4C4C4"/>
</mask>
<g mask="url(#mask0_374_752)">
<path fill-rule="evenodd" clip-rule="evenodd" d="M221.745 40.178C196.67 40.3809 169.421 43.1567 147.339 51.9896C94.1816 73.2525 44.6654 68.6076 19.7321 63.2648C14.2547 62.091 10.7659 56.6992 11.9396 51.2218C13.1133 45.7444 18.5051 42.2556 23.9825 43.4293C46.3826 48.2294 91.533 52.4636 139.805 33.1548C165.371 22.9281 195.598 20.1032 221.581 19.893C243.395 19.7164 263.007 21.3975 275.087 22.433C277.453 22.6358 279.53 22.8139 281.278 22.9484C286.863 23.378 291.043 28.254 290.613 33.8393C290.184 39.4245 285.307 43.604 279.722 43.1743C277.814 43.0275 275.61 42.8392 273.143 42.6284C260.999 41.5907 242.501 40.0101 221.745 40.178ZM199.502 85.3582C183.302 80.9827 164.112 82.2863 144.466 96.5745C119.502 114.73 92.5189 117.481 69.4218 113.724C46.5586 110.005 27.0533 99.8757 15.7716 91.4144C11.2902 88.0534 10.382 81.6958 13.743 77.2144C17.1041 72.733 23.4616 71.8248 27.943 75.1858C36.9471 81.9389 53.4489 90.5736 72.6785 93.7013C91.6743 96.791 112.87 94.4702 132.534 80.1687C157.517 61.9997 183.125 59.9223 204.791 65.7742C226.018 71.5075 243.33 84.779 253.04 97.4016C256.455 101.842 255.624 108.21 251.184 111.625C246.744 115.041 240.376 114.21 236.961 109.77C229.766 100.417 216.141 89.8523 199.502 85.3582ZM211.926 135.816C195.547 131.391 172.897 133.283 144.498 154.109C112.101 177.867 81.9757 183.35 57.1394 179.673C32.667 176.049 14.111 163.645 4.20935 152.753C0.441213 148.608 0.746683 142.193 4.89164 138.425C9.0366 134.657 15.4514 134.962 19.2196 139.107C26.2227 146.811 40.6309 156.721 60.1109 159.606C79.2271 162.436 104.042 158.622 132.502 137.751C164.96 113.948 193.87 109.924 217.217 116.233C240.04 122.4 255.941 138.016 263.781 150.757C266.717 155.528 265.23 161.775 260.459 164.711C255.688 167.647 249.441 166.16 246.505 161.389C240.822 152.154 228.829 140.384 211.926 135.816ZM207.939 174.3C199.886 174.13 189.039 177.331 174.927 187.68C135.727 216.426 104.739 226.248 81.4263 227.661C57.944 229.084 43.3816 221.888 37.607 219.001C32.5967 216.496 30.5658 210.403 33.071 205.393C35.5762 200.383 41.6687 198.352 46.6791 200.857L46.7867 200.911C51.2231 203.13 61.9911 208.516 80.1991 207.412C98.7253 206.289 126.059 198.361 162.931 171.321C179.247 159.356 194.391 153.724 208.367 154.019C222.57 154.319 234.003 160.703 242.735 169.612C259.593 186.812 267.622 214.542 270.264 233.916C271.021 239.466 267.135 244.579 261.585 245.336C256.034 246.093 250.921 242.207 250.165 236.657C247.735 218.84 240.55 196.363 228.247 183.811C222.399 177.844 215.765 174.465 207.939 174.3ZM194.397 218.28C189.415 220.872 183.123 225.08 175.325 231.416C154.676 248.193 138.39 258.595 125.26 264.555C112.112 270.523 101.521 272.311 92.6206 270.976C83.5225 269.611 77.6381 265.187 73.8166 261.843C72.7674 260.925 72.106 260.316 71.6012 259.851C71.144 259.429 70.8152 259.126 70.4432 258.82C65.8633 257.842 62.4287 253.772 62.4287 248.901C62.4287 243.299 66.9699 238.758 72.5716 238.758C77.3037 238.758 80.7512 241.138 82.5013 242.492C83.6221 243.359 85.1176 244.717 86.1898 245.69C86.5916 246.055 86.9339 246.366 87.1748 246.577C89.6926 248.78 92.0493 250.378 95.6298 250.915C99.4079 251.481 105.933 251.05 116.875 246.083C127.834 241.108 142.61 231.858 162.533 215.672C170.963 208.822 178.427 203.722 185.035 200.284C191.538 196.901 197.887 194.771 203.909 194.716C210.385 194.657 216.132 197.035 220.307 201.769C224.142 206.118 225.918 211.623 226.741 216.732C228.377 226.885 226.877 239.61 224.359 251.712C221.784 264.087 217.896 276.936 213.972 287.836C212.075 293.107 206.264 295.841 200.993 293.944C195.723 292.047 192.988 286.236 194.885 280.965C198.568 270.734 202.161 258.818 204.499 247.579C206.894 236.068 207.74 226.33 206.713 219.959C206.205 216.805 205.397 215.532 205.092 215.186C205.061 215.151 205.038 215.129 205.025 215.117L205.012 215.105C205.005 215.101 204.946 215.077 204.812 215.052C204.674 215.026 204.442 214.998 204.093 215.001C202.555 215.015 199.482 215.635 194.397 218.28ZM69.8337 258.357C69.8332 258.355 69.8649 258.373 69.9307 258.419C69.8672 258.383 69.8343 258.359 69.8337 258.357Z" fill="#25BBB2"/>
</g>
<path fill-rule="evenodd" clip-rule="evenodd" d="M52.74 75.7711C56.9915 138.644 103.708 231.393 239.847 171.75C226.01 214.508 185.866 245.429 138.5 245.429C79.6817 245.429 32 197.748 32 138.929C32 115.286 39.7046 93.4419 52.74 75.7711Z" fill="#01050C" fill-opacity="0.35"/>
</g>
<defs>
<filter id="filter0_dd_374_752" x="0" y="0.42926" width="277" height="277" filterUnits="userSpaceOnUse" color-interpolation-filters="sRGB">
<feFlood flood-opacity="0" result="BackgroundImageFix"/>
<feColorMatrix in="SourceAlpha" type="matrix" values="0 0 0 0 0 0 0 0 0 0 0 0 0 0 0 0 0 0 127 0" result="hardAlpha"/>
<feOffset/>
<feGaussianBlur stdDeviation="16"/>
<feComposite in2="hardAlpha" operator="out"/>
<feColorMatrix type="matrix" values="0 0 0 0 0 0 0 0 0 0.58 0 0 0 0 1 0 0 0 0.25 0"/>
<feBlend mode="normal" in2="BackgroundImageFix" result="effect1_dropShadow_374_752"/>
<feColorMatrix in="SourceAlpha" type="matrix" values="0 0 0 0 0 0 0 0 0 0 0 0 0 0 0 0 0 0 127 0" result="hardAlpha"/>
<feOffset dx="2" dy="-2"/>
<feGaussianBlur stdDeviation="4"/>
<feComposite in2="hardAlpha" operator="out"/>
<feColorMatrix type="matrix" values="0 0 0 0 1 0 0 0 0 1 0 0 0 0 1 0 0 0 0.15 0"/>
<feBlend mode="normal" in2="effect1_dropShadow_374_752" result="effect2_dropShadow_374_752"/>
<feBlend mode="normal" in="SourceGraphic" in2="effect2_dropShadow_374_752" result="shape"/>
</filter>
</defs>
</svg>
