<svg width="298" height="278" viewBox="0 0 298 278" fill="none" xmlns="http://www.w3.org/2000/svg">
<path d="M245.638 29.6133C248.679 28.7088 251.337 27.3942 253.615 25.6697C255.925 23.9578 257.547 21.9032 258.482 19.5059C259.366 17.2381 258.95 15.7694 257.233 15.0998C256.455 14.7966 255.751 14.7834 255.121 15.06C254.523 15.3493 254.066 15.899 253.75 16.7089C253.447 17.4864 253.294 18.4531 253.291 19.609L245.503 18.4755C245.571 16.6733 245.89 15.0432 246.458 13.5854C247.57 10.7345 249.31 8.85643 251.679 7.95122C254.06 7.01362 256.854 7.1702 260.061 8.42095C263.301 9.68434 265.477 11.522 266.589 13.9339C267.701 16.3457 267.638 19.1391 266.4 22.314C265.276 25.1973 263.515 27.6083 261.116 29.5469C258.718 31.4856 255.76 32.9447 252.243 33.9245L250.386 38.6868L243.194 35.8821L245.638 29.6133ZM241.852 38.6058L249.578 41.619L246.641 49.1512L238.914 46.138L241.852 38.6058Z" fill="white"/>
<circle cx="132.436" cy="144.661" r="129.176" stroke="white" stroke-width="6.51992" stroke-linejoin="round" stroke-dasharray="26.08 26.08"/>
</svg>
