<svg width="278" height="278" viewBox="0 0 278 278" fill="none" xmlns="http://www.w3.org/2000/svg">
<g filter="url(#filter0_dd_374_752)">
<circle cx="138.787" cy="139.003" r="106.5" fill="#3937B4"/>
<mask id="mask0_374_752" style="mask-type:alpha" maskUnits="userSpaceOnUse" x="32" y="32" width="214" height="214">
<circle cx="138.787" cy="139.003" r="106.5" fill="#C4C4C4"/>
</mask>
<g mask="url(#mask0_374_752)">
<path fill-rule="evenodd" clip-rule="evenodd" d="M222.032 40.2515C196.957 40.4544 169.708 43.2301 147.626 52.0631C94.4687 73.326 44.9525 68.6811 20.0192 63.3382C14.5418 62.1645 11.053 56.7727 12.2267 51.2953C13.4004 45.8179 18.7923 42.3291 24.2697 43.5028C46.6697 48.3028 91.8201 52.537 140.092 33.2283C165.658 23.0016 195.885 20.1767 221.868 19.9664C243.682 19.7899 263.294 21.471 275.374 22.5065C277.74 22.7093 279.817 22.8874 281.565 23.0218C287.15 23.4515 291.33 28.3275 290.9 33.9127C290.471 39.498 285.595 43.6774 280.009 43.2478C278.101 43.101 275.897 42.9126 273.43 42.7019C261.286 41.6641 242.788 40.0835 222.032 40.2515ZM199.789 85.4317C183.589 81.0562 164.399 82.3597 144.753 96.6479C119.789 114.804 92.806 117.554 69.7089 113.797C46.8457 110.079 27.3404 99.9491 16.0587 91.4879C11.5773 88.1268 10.6691 81.7693 14.0301 77.2879C17.3912 72.8065 23.7487 71.8983 28.2301 75.2593C37.2342 82.0124 53.736 90.6471 72.9656 93.7748C91.9614 96.8645 113.157 94.5437 132.822 80.2421C157.804 62.0732 183.412 59.9958 205.078 65.8477C226.306 71.5809 243.617 84.8524 253.327 97.4751C256.742 101.915 255.912 108.283 251.471 111.699C247.031 115.114 240.663 114.284 237.248 109.844C230.053 100.49 216.428 89.9258 199.789 85.4317ZM212.213 135.89C195.834 131.464 173.185 133.357 144.785 154.183C112.389 177.941 82.2628 183.424 57.4266 179.746C32.9542 176.122 14.3981 163.718 4.49646 152.826C0.728322 148.681 1.03379 142.267 5.17875 138.499C9.32371 134.73 15.7385 135.036 19.5067 139.181C26.5098 146.884 40.918 156.795 60.398 159.679C79.5142 162.51 104.329 158.695 132.789 137.824C165.247 114.022 194.158 109.998 217.505 116.307C240.327 122.474 256.228 138.089 264.068 150.831C267.004 155.601 265.517 161.849 260.746 164.785C255.975 167.721 249.728 166.233 246.792 161.462C241.109 152.227 229.116 140.457 212.213 135.89ZM208.226 174.374C200.173 174.204 189.326 177.405 175.214 187.753C136.014 216.5 105.026 226.321 81.7134 227.734C58.2311 229.157 43.6687 221.962 37.8941 219.075C32.8838 216.569 30.8529 210.477 33.3581 205.467C35.8633 200.456 41.9558 198.425 46.9662 200.931L47.0738 200.984C51.5102 203.203 62.2782 208.589 80.4862 207.485C99.0124 206.363 126.346 198.434 163.218 171.395C179.535 159.429 194.678 153.797 208.654 154.092C222.857 154.392 234.29 160.776 243.022 169.685C259.88 186.885 267.91 214.615 270.551 233.989C271.308 239.54 267.422 244.653 261.872 245.41C256.322 246.166 251.209 242.281 250.452 236.73C248.022 218.914 240.837 196.436 228.535 183.884C222.686 177.917 216.052 174.539 208.226 174.374ZM194.684 218.354C189.702 220.945 183.41 225.153 175.612 231.489C154.963 248.266 138.677 258.668 125.547 264.628C112.399 270.597 101.808 272.384 92.9077 271.049C83.8096 269.685 77.9252 265.26 74.1037 261.917C73.0545 260.999 72.3931 260.389 71.8883 259.924C71.4311 259.503 71.1023 259.2 70.7303 258.893C66.1505 257.915 62.7159 253.846 62.7159 248.974C62.7159 243.372 67.257 238.831 72.8587 238.831C77.5908 238.831 81.0383 241.212 82.7884 242.566C83.9092 243.432 85.4047 244.79 86.4769 245.764C86.8787 246.128 87.221 246.439 87.4619 246.65C89.9797 248.853 92.3364 250.451 95.9169 250.988C99.6951 251.555 106.22 251.124 117.162 246.157C128.121 241.182 142.898 231.932 162.82 215.745C171.251 208.895 178.714 203.795 185.322 200.358C191.825 196.974 198.175 194.844 204.196 194.789C210.672 194.731 216.419 197.109 220.594 201.843C224.429 206.192 226.205 211.697 227.028 216.805C228.664 226.959 227.164 239.683 224.646 251.785C222.072 264.161 218.183 277.009 214.259 287.91C212.362 293.18 206.551 295.915 201.28 294.017C196.01 292.12 193.275 286.309 195.173 281.039C198.856 270.808 202.448 258.891 204.786 247.653C207.181 236.141 208.027 226.403 207 220.032C206.492 216.879 205.684 215.606 205.379 215.26C205.348 215.225 205.325 215.202 205.312 215.19L205.299 215.178C205.292 215.175 205.233 215.15 205.099 215.125C204.962 215.1 204.729 215.071 204.38 215.074C202.842 215.088 199.769 215.708 194.684 218.354ZM70.1208 258.431C70.1203 258.428 70.152 258.446 70.2178 258.493C70.1544 258.456 70.1214 258.433 70.1208 258.431Z" fill="#25BBB2"/>
</g>
<path fill-rule="evenodd" clip-rule="evenodd" d="M53.0271 75.8446C57.2786 138.717 103.995 231.466 240.134 171.824C226.297 214.582 186.153 245.503 138.787 245.503C79.9688 245.503 32.2871 197.821 32.2871 139.003C32.2871 115.359 39.9917 93.5154 53.0271 75.8446Z" fill="#01050C" fill-opacity="0.35"/>
</g>
<defs>
<filter id="filter0_dd_374_752" x="0.287109" y="0.502731" width="277" height="277" filterUnits="userSpaceOnUse" color-interpolation-filters="sRGB">
<feFlood flood-opacity="0" result="BackgroundImageFix"/>
<feColorMatrix in="SourceAlpha" type="matrix" values="0 0 0 0 0 0 0 0 0 0 0 0 0 0 0 0 0 0 127 0" result="hardAlpha"/>
<feOffset/>
<feGaussianBlur stdDeviation="16"/>
<feComposite in2="hardAlpha" operator="out"/>
<feColorMatrix type="matrix" values="0 0 0 0 0 0 0 0 0 0.58 0 0 0 0 1 0 0 0 0.25 0"/>
<feBlend mode="normal" in2="BackgroundImageFix" result="effect1_dropShadow_374_752"/>
<feColorMatrix in="SourceAlpha" type="matrix" values="0 0 0 0 0 0 0 0 0 0 0 0 0 0 0 0 0 0 127 0" result="hardAlpha"/>
<feOffset dx="2" dy="-2"/>
<feGaussianBlur stdDeviation="4"/>
<feComposite in2="hardAlpha" operator="out"/>
<feColorMatrix type="matrix" values="0 0 0 0 1 0 0 0 0 1 0 0 0 0 1 0 0 0 0.15 0"/>
<feBlend mode="normal" in2="effect1_dropShadow_374_752" result="effect2_dropShadow_374_752"/>
<feBlend mode="normal" in="SourceGraphic" in2="effect2_dropShadow_374_752" result="shape"/>
</filter>
</defs>
</svg>
