<svg width="368" height="306" viewBox="0 0 368 306" fill="none" xmlns="http://www.w3.org/2000/svg">
<path d="M65.7924 145.873C65.5311 145.742 65.5734 145.356 65.8567 145.284L89.7468 139.294C90.0382 139.221 90.3461 139.255 90.6147 139.389L102.021 145.11C102.282 145.241 102.24 145.627 101.957 145.698L78.0667 151.689C77.7752 151.762 77.4674 151.728 77.1987 151.593L65.7924 145.873Z" fill="#D2D2D2"/>
<path d="M81.7141 115.868C81.1539 116.008 80.7609 116.513 80.7609 117.092V144.018C80.7609 144.3 81.0821 144.461 81.3071 144.292L81.62 144.056C83.0667 142.968 84.9254 142.591 86.6798 143.031C86.8693 143.079 87.0529 142.935 87.0529 142.739V116.146C87.0529 115.325 86.2836 114.722 85.4894 114.921L81.7141 115.868Z" fill="#4F4646"/>
<path d="M8.40674 44.908C8.40674 39.1164 12.3365 34.068 17.9382 32.6633L143.772 1.10963C151.713 -0.881876 159.407 5.14309 159.407 13.3543V88.3063C159.407 94.0978 155.477 99.1462 149.875 100.551L24.042 132.105C16.1 134.096 8.40674 128.071 8.40674 119.86V44.908Z" fill="#10B496"/>
<g filter="url(#filter0_d_608_1083)">
<ellipse cx="84.0956" cy="145.84" rx="37.1256" ry="3.37506" transform="rotate(-15 84.0956 145.84)" fill="#4F4646" fill-opacity="0.01"/>
</g>
<path d="M278.139 197.124L273.946 175.531C273.91 175.348 273.791 175.191 273.624 175.107L250.461 163.526C250.116 163.353 249.699 163.545 249.607 163.92L244.327 185.241" stroke="#094465" stroke-width="3.0127" stroke-linecap="round"/>
<path d="M249.588 181.166L227.143 169.943C226.643 169.693 226.724 168.955 227.266 168.82L249.572 163.243C249.711 163.208 249.859 163.225 249.987 163.289L272.433 174.512C272.933 174.762 272.852 175.499 272.309 175.635L250.004 181.211C249.864 181.246 249.717 181.23 249.588 181.166Z" fill="#21D0B1"/>
<path d="M273.692 175.289L251.519 180.833C250.96 180.972 250.542 180.322 250.903 179.872L273.762 151.297C273.845 151.194 273.959 151.121 274.087 151.089L296.259 145.546C296.819 145.406 297.236 146.057 296.876 146.507L274.016 175.081C273.934 175.184 273.82 175.257 273.692 175.289Z" fill="#10B496"/>
<path d="M254.038 203.149L249.844 181.557C249.809 181.373 249.69 181.216 249.522 181.133L226.359 169.551C226.014 169.379 225.598 169.571 225.505 169.945L220.226 191.266" stroke="#094465" stroke-width="3.0127" stroke-linecap="round"/>
<path d="M211.86 225.744L207.666 204.152C207.63 203.968 207.512 203.811 207.344 203.728L184.181 192.146C183.836 191.974 183.42 192.166 183.327 192.54L178.047 213.861" stroke="#094465" stroke-width="3.0127" stroke-linecap="round"/>
<path d="M183.309 209.786L160.863 198.564C160.363 198.313 160.444 197.576 160.987 197.44L183.292 191.864C183.432 191.829 183.579 191.845 183.708 191.909L206.153 203.132C206.653 203.382 206.572 204.12 206.03 204.255L183.724 209.832C183.585 209.867 183.438 209.851 183.309 209.786Z" fill="#21D0B1"/>
<path d="M207.412 203.91L185.24 209.453C184.68 209.593 184.263 208.942 184.623 208.492L207.483 179.918C207.565 179.815 207.679 179.742 207.807 179.71L229.98 174.166C230.539 174.027 230.956 174.677 230.596 175.127L207.737 203.702C207.654 203.805 207.54 203.878 207.412 203.91Z" fill="#10B496"/>
<path d="M187.758 231.769L183.565 210.177C183.529 209.993 183.41 209.837 183.243 209.753L160.08 198.172C159.735 197.999 159.318 198.191 159.226 198.566L153.946 219.886" stroke="#094465" stroke-width="3.0127" stroke-linecap="round"/>
<path d="M133.529 246.833L129.336 225.241C129.3 225.057 129.181 224.9 129.014 224.817L105.851 213.235C105.506 213.062 105.089 213.255 104.997 213.629L99.7172 234.95" stroke="#094465" stroke-width="3.0127" stroke-linecap="round"/>
<path d="M104.979 230.875L82.5332 219.652C82.0328 219.402 82.1138 218.664 82.6565 218.529L104.962 212.952C105.101 212.918 105.249 212.934 105.377 212.998L127.823 224.221C128.323 224.471 128.242 225.209 127.699 225.344L105.394 230.921C105.255 230.955 105.107 230.939 104.979 230.875Z" fill="#21D0B1"/>
<path d="M129.082 224.999L106.91 230.542C106.35 230.682 105.933 230.031 106.293 229.581L129.152 201.006C129.235 200.903 129.349 200.83 129.477 200.798L151.649 195.255C152.209 195.115 152.626 195.766 152.266 196.216L129.406 224.79C129.324 224.893 129.21 224.967 129.082 224.999Z" fill="#10B496"/>
<path d="M109.428 252.858L105.234 231.266C105.199 231.082 105.08 230.926 104.912 230.842L81.7496 219.26C81.4043 219.088 80.988 219.28 80.8952 219.655L75.6157 240.975" stroke="#094465" stroke-width="3.0127" stroke-linecap="round"/>
<path d="M347.639 248.339L343.446 226.747C343.41 226.563 343.291 226.407 343.124 226.323L319.961 214.742C319.616 214.569 319.199 214.761 319.107 215.136L313.827 236.456" stroke="#094465" stroke-width="3.0127" stroke-linecap="round"/>
<path d="M319.088 232.381L296.643 221.159C296.143 220.909 296.224 220.171 296.766 220.035L319.072 214.459C319.211 214.424 319.359 214.44 319.487 214.505L341.933 225.727C342.433 225.977 342.352 226.715 341.809 226.851L319.504 232.427C319.364 232.462 319.217 232.446 319.088 232.381Z" fill="#21D0B1"/>
<path d="M343.192 226.505L321.019 232.048C320.46 232.188 320.042 231.538 320.403 231.087L343.262 202.513C343.345 202.41 343.459 202.337 343.587 202.305L365.759 196.762C366.319 196.622 366.736 197.272 366.376 197.723L343.516 226.297C343.434 226.4 343.32 226.473 343.192 226.505Z" fill="#10B496"/>
<path d="M323.538 254.365L319.344 232.772C319.309 232.589 319.19 232.432 319.022 232.348L295.859 220.767C295.514 220.594 295.098 220.786 295.005 221.161L289.726 242.482" stroke="#094465" stroke-width="3.0127" stroke-linecap="round"/>
<path d="M290.19 277.754L285.997 256.162C285.961 255.979 285.842 255.822 285.675 255.738L262.512 244.157C262.167 243.984 261.75 244.176 261.657 244.551L256.378 265.872" stroke="#094465" stroke-width="3.0127" stroke-linecap="round"/>
<path d="M261.639 261.797L239.194 250.574C238.694 250.324 238.775 249.586 239.317 249.451L261.622 243.874C261.762 243.839 261.909 243.856 262.038 243.92L284.483 255.143C284.984 255.393 284.903 256.13 284.36 256.266L262.055 261.842C261.915 261.877 261.768 261.861 261.639 261.797Z" fill="#21D0B1"/>
<path d="M285.743 255.92L263.57 261.464C263.011 261.603 262.593 260.953 262.954 260.503L285.813 231.928C285.896 231.825 286.009 231.752 286.137 231.72L308.31 226.177C308.87 226.037 309.287 226.688 308.927 227.138L286.067 255.712C285.985 255.815 285.871 255.888 285.743 255.92Z" fill="#10B496"/>
<path d="M266.089 283.78L261.895 262.188C261.86 262.004 261.741 261.847 261.573 261.764L238.41 250.182C238.065 250.01 237.649 250.202 237.556 250.576L232.276 271.897" stroke="#094465" stroke-width="3.0127" stroke-linecap="round"/>
<path d="M205.835 298.01L201.641 276.418C201.605 276.235 201.486 276.078 201.319 275.994L178.156 264.413C177.811 264.24 177.395 264.432 177.302 264.807L172.022 286.128" stroke="#094465" stroke-width="3.0127" stroke-linecap="round"/>
<path d="M177.284 282.053L154.838 270.83C154.338 270.58 154.419 269.842 154.962 269.707L177.267 264.13C177.406 264.095 177.554 264.112 177.682 264.176L200.128 275.398C200.628 275.649 200.547 276.386 200.004 276.522L177.699 282.098C177.56 282.133 177.412 282.117 177.284 282.053Z" fill="#21D0B1"/>
<path d="M201.387 276.176L179.215 281.72C178.655 281.859 178.238 281.209 178.598 280.759L201.457 252.184C201.54 252.081 201.654 252.008 201.782 251.976L223.954 246.433C224.514 246.293 224.931 246.944 224.571 247.394L201.711 275.968C201.629 276.071 201.515 276.144 201.387 276.176Z" fill="#10B496"/>
<path d="M181.733 304.036L177.539 282.444C177.504 282.26 177.385 282.103 177.217 282.02L154.055 270.438C153.709 270.265 153.293 270.458 153.2 270.832L147.921 292.153" stroke="#094465" stroke-width="3.0127" stroke-linecap="round"/>
<defs>
<filter id="filter0_d_608_1083" x="0.224121" y="91.6901" width="167.743" height="116.299" filterUnits="userSpaceOnUse" color-interpolation-filters="sRGB">
<feFlood flood-opacity="0" result="BackgroundImageFix"/>
<feColorMatrix in="SourceAlpha" type="matrix" values="0 0 0 0 0 0 0 0 0 0 0 0 0 0 0 0 0 0 127 0" result="hardAlpha"/>
<feMorphology radius="16" operator="dilate" in="SourceAlpha" result="effect1_dropShadow_608_1083"/>
<feOffset dy="4"/>
<feGaussianBlur stdDeviation="16"/>
<feColorMatrix type="matrix" values="0 0 0 0 0 0 0 0 0 0 0 0 0 0 0 0 0 0 0.15 0"/>
<feBlend mode="normal" in2="BackgroundImageFix" result="effect1_dropShadow_608_1083"/>
<feBlend mode="normal" in="SourceGraphic" in2="effect1_dropShadow_608_1083" result="shape"/>
</filter>
</defs>
</svg>
