<svg width="62" height="54" viewBox="0 0 62 54" fill="none" xmlns="http://www.w3.org/2000/svg">
<ellipse cx="8.77273" cy="8.8692" rx="4.3865" ry="4.43451" fill="white"/>
<path d="M0 8.86902V53.2141H61.411V8.86902C61.411 8.86902 61.411 0 52.638 0C43.865 0 43.865 8.86902 43.865 8.86902V17.738C43.865 26.6071 43.865 26.6071 35.092 26.6071H26.319C17.546 26.6071 17.546 26.6071 17.546 17.738V8.86902C17.546 8.86902 17.546 0 8.773 0C0 0 0 8.86902 0 8.86902Z" fill="#2794F8"/>
<ellipse cx="8.77273" cy="8.8692" rx="4.3865" ry="4.43451" fill="white"/>
<ellipse cx="24.1254" cy="37.6935" rx="2.19325" ry="2.21725" fill="white"/>
<ellipse cx="37.285" cy="37.6935" rx="2.19325" ry="2.21725" fill="white"/>
<ellipse cx="52.638" cy="8.8692" rx="4.3865" ry="4.43451" fill="white"/>
<path d="M39.4781 22.1727H21.9321V8.86914L26.3186 17.7382L30.7051 8.86914L35.0916 17.7382L39.4781 8.86914V22.1727Z" fill="#FFEB36"/>
</svg>
