<svg width="21" height="21" viewBox="0 0 21 21" fill="none" xmlns="http://www.w3.org/2000/svg">
<path fill-rule="evenodd" clip-rule="evenodd" d="M1.42188 8.26037H2.28947V6.72845C2.28947 5.03303 3.16675 3.48669 4.58008 2.36367C6.00557 1.2317 7.9728 0.52832 10.1406 0.52832C12.3077 0.52832 14.2766 1.23096 15.7001 2.36367C17.1144 3.48669 17.992 5.03229 17.992 6.72845V8.26037H18.8595C19.564 8.26037 20.1407 8.69979 20.1407 9.23666V19.552C20.1407 20.0889 19.564 20.5283 18.8595 20.5283H1.42188C0.716388 20.5283 0.140696 20.0889 0.140696 19.552V9.23666C0.140029 8.69979 0.716388 8.26037 1.42188 8.26037ZM9.089 15.056L7.70603 17.8146H12.5739L11.2936 15.0177C12.1065 14.6993 12.6622 14.0537 12.6622 13.3093C12.6622 12.2477 11.5332 11.388 10.1399 11.388C8.74747 11.388 7.61926 12.2477 7.61926 13.3093C7.61844 14.0841 8.22116 14.7515 9.089 15.056ZM4.71439 8.26037H15.5658V6.72845C15.5658 5.52262 14.9492 4.42985 13.9567 3.6412C12.9748 2.86108 11.6239 2.37637 10.1399 2.37637C8.65659 2.37637 7.30464 2.86108 6.32341 3.6412C5.33008 4.42985 4.71439 5.52262 4.71439 6.72845V8.26037Z" fill="black"/>
</svg>
