<svg width="21" height="21" viewBox="0 0 21 21" fill="none" xmlns="http://www.w3.org/2000/svg">
<path d="M18.42 0.669059C19.5547 0.669051 20.4746 1.5889 20.4746 2.72359C20.4746 3.85827 19.5547 4.77812 18.4201 4.77812H2.88241C1.74772 4.77812 0.827881 3.85827 0.827881 2.72359C0.827881 1.5889 1.74773 0.669051 2.88242 0.669058L10.7057 0.66911L18.42 0.669059Z" fill="black"/>
<path fill-rule="evenodd" clip-rule="evenodd" d="M0.827881 16.9002C0.827881 19.1093 2.61874 20.9002 4.82788 20.9002H16.4746C18.6837 20.9002 20.4746 19.1093 20.4746 16.9002V11.3244C20.4746 9.11528 18.6837 7.32442 16.4746 7.32442H4.82788C2.61874 7.32442 0.827881 9.11528 0.827881 11.3244V16.9002ZM8.53382 12.9929C7.99554 13.3566 7.26735 13.2399 6.86966 12.7262C6.42806 12.1558 6.56873 11.3298 7.17424 10.9377L9.3287 9.54257C9.72246 9.28759 10.1816 9.15192 10.6507 9.15192C11.9939 9.15192 13.0829 10.2408 13.0829 11.5841V15.8722C13.0829 17.4986 11.6416 18.7475 10.0317 18.5161L9.93197 12.0482L8.53382 12.9929Z" fill="black"/>
</svg>
