<?xml version="1.0" encoding="utf-8"?><svg version="1.1" id="Layer_1" xmlns="http://www.w3.org/2000/svg" xmlns:xlink="http://www.w3.org/1999/xlink" x="0px" y="0px" viewBox="0 0 117.37 122.88" style="enable-background:new 0 0 117.37 122.88" xml:space="preserve"><style type="text/css">.st0{fill-rule:evenodd;clip-rule:evenodd;}</style><g><path class="st0" d="M78.08,115.36H6.11c-5.24-0.4-6.5-4.17-6.02-8.52C2.96,81.2,31.72,88.62,43.28,78.21l0,0 c5.76,16.96,29.85,17.59,35.26,0c3.18,2.87,9.48,4.58,15.85,6.08c0.32,0.08,0.65,0.15,1,0.23c-7.77,4.75-13.88,12.08-16.32,20.65 C78.07,108.69,77.76,112.12,78.08,115.36L78.08,115.36z M109.51,88.85l7.04,5.43c0.93,0.72,1.1,2.06,0.39,2.99l-1.83,2.29 l-10.42-8.04l1.83-2.29C107.23,88.31,108.58,88.14,109.51,88.85L109.51,88.85L109.51,88.85z M101.92,117.47 c-2.4,1.1-4.79,2.19-7.19,3.28c-5.63,2.57-5.45,3.78-4.58-2.08l1.37-9.22l0,0l-0.01-0.01l11.54-15.87l10.42,8.04l-11.55,15.87 L101.92,117.47L101.92,117.47L101.92,117.47z M93.3,110.82l6.84,5.28c-1.58,0.72-3.15,1.44-4.72,2.15 c-3.7,1.68-3.58,2.48-3.01-1.37L93.3,110.82L93.3,110.82L93.3,110.82z M43.13,61.2c2.19,3.47,4.48,7.02,7.32,9.63 c2.74,2.5,6.06,4.2,10.45,4.21c4.76,0.01,8.23-1.75,11.06-4.39c2.94-2.75,5.25-6.52,7.54-10.28l6.14-10.12 c1.14-2.62,1.56-4.36,1.3-5.39c-0.16-0.61-0.83-0.91-1.98-0.96c-0.24-0.01-0.49-0.01-0.74-0.01c-0.27,0.01-0.56,0.03-0.86,0.05 c-0.17,0.01-0.32,0-0.47-0.03c-0.54,0.03-1.11-0.01-1.68-0.09l2.1-9.31c-15.61,2.46-27.28-9.13-43.77-2.32l1.19,10.97 c-0.65,0.04-1.29,0.01-1.87-0.07C29.39,43.4,41.26,58.23,43.13,61.2L43.13,61.2z M87.08,41.11c1.51,0.46,2.48,1.42,2.88,2.97 c0.44,1.72-0.04,4.14-1.5,7.45l0,0c-0.03,0.06-0.05,0.12-0.09,0.18l-6.21,10.23c-2.4,3.94-4.82,7.9-8.07,10.93 c-3.36,3.15-7.5,5.24-13.16,5.22c-5.28-0.01-9.27-2.03-12.53-5.02c-3.94-3.62-22.12-26.37-14-31.85c0.4-0.26,0.84-0.49,1.32-0.67 c-0.36-4.7-0.48-10.63-0.26-15.59c0.12-1.17,0.35-2.35,0.67-3.53c1.39-4.98,4.89-8.99,9.21-11.74c2.39-1.52,5-2.67,7.72-3.43 c1.73-0.49-1.47-6.03,0.31-6.2c8.65-0.89,22.66,7.01,28.7,13.55c3.02,3.27,4.93,7.62,5.34,13.36L87.08,41.11L87.08,41.11 L87.08,41.11L87.08,41.11z"/></g></svg>