<svg width="63" height="60" viewBox="0 0 63 60" fill="none" xmlns="http://www.w3.org/2000/svg">
<path d="M32.5092 2.84449L37.7758 19.0535C38.3803 20.9141 40.1142 22.1738 42.0705 22.1738H59.1137C60.582 22.1738 61.1925 24.0527 60.0046 24.9158L46.2164 34.9335C44.6337 36.0834 43.9714 38.1217 44.576 39.9823L49.8426 56.1913C50.2963 57.5878 48.698 58.749 47.5101 57.8859L33.7219 47.8682C32.1392 46.7183 29.996 46.7183 28.4133 47.8682L14.6251 57.886C13.4372 58.749 11.8389 57.5878 12.2926 56.1913L17.5592 39.9823C18.1638 38.1217 17.5015 36.0834 15.9188 34.9335L2.1306 24.9158C0.942684 24.0527 1.55318 22.1738 3.02155 22.1738H20.0647C22.021 22.1738 23.7549 20.9141 24.3594 19.0535L29.626 2.84448C30.0798 1.448 32.0554 1.44799 32.5092 2.84449Z" stroke="#232629" stroke-width="3"/>
</svg>
