<svg width="95" height="43" viewBox="0 0 95 43" fill="none" xmlns="http://www.w3.org/2000/svg">
    <path d="M20.4919 42.5996C31.8092 42.5996 40.9837 33.2066 40.9837 21.6198C40.9837 10.033 31.8092 0.640015 20.4919 0.640015C9.17452 0.640015 0 10.033 0 21.6198C0 33.2066 9.17452 42.5996 20.4919 42.5996Z" fill="#3937B4"/>
    <path d="M4.80656 8.11822C9.30988 8.06208 14.6714 7.29451 20.2407 5.01376C23.1095 3.8389 26.4316 3.20801 29.7721 2.90983C27.0148 1.47338 23.8975 0.657054 20.5956 0.640278C19.9831 0.841466 19.3807 1.06198 18.7911 1.30343C15.6669 2.58286 12.6107 3.33757 9.76614 3.7398C7.89182 4.92083 6.21731 6.40212 4.80656 8.11822Z" fill="#25BBB2"/>
    <path d="M19.688 13.7967C23.4682 10.982 27.1605 10.7252 30.2775 11.5871C33.4792 12.4725 36.1006 14.5535 37.4851 16.3961C38.1422 17.2708 39.3675 17.4344 40.2219 16.7615C40.2832 16.7132 40.341 16.6619 40.3952 16.6079C39.991 14.9198 39.3873 13.3119 38.6111 11.8119C36.7236 10.0867 34.2 8.53244 31.2953 7.72923C27.1264 6.57645 22.1992 6.98569 17.3923 10.5648C13.6085 13.3821 9.53021 13.8393 5.87524 13.2307C4.55778 13.0113 3.30687 12.6544 2.16394 12.2256C1.5843 13.4087 1.11073 14.6556 0.755987 15.9533C2.1384 16.4763 3.65089 16.9089 5.24861 17.175C9.69278 17.915 14.8846 17.3732 19.688 13.7967Z" fill="#25BBB2"/>
    <path d="M19.6942 25.1306C25.1586 21.028 29.5165 20.6552 32.6681 21.5271C35.9204 22.4269 38.228 24.7455 39.3215 26.5647C39.5399 26.9281 39.8536 27.1948 40.2094 27.3518C40.6616 25.7181 40.9253 24.0033 40.975 22.2336C39.2773 20.3524 36.8211 18.5365 33.6862 17.6693C29.194 16.4265 23.6312 17.2192 17.386 21.9081C11.9099 26.0196 7.13525 26.771 3.45707 26.2134C2.31895 26.0408 1.2708 25.7407 0.325195 25.3638C0.605933 26.9593 1.06288 28.4922 1.67467 29.9404C2.06926 30.0281 2.47293 30.1039 2.88534 30.1664C7.66412 30.8909 13.4606 29.8108 19.6942 25.1306Z" fill="#25BBB2"/>
    <path d="M25.549 31.7438C28.2643 29.7052 30.3515 29.0746 31.901 29.1081C33.4067 29.1406 34.6832 29.8062 35.8086 30.9816C36.4415 31.6427 37.0039 32.4436 37.4974 33.3293C38.3196 32.08 39.014 30.7353 39.5614 29.3146C39.2578 28.918 38.9363 28.5398 38.5962 28.1845C36.916 26.4295 34.7162 25.1719 31.9833 25.1129C29.2941 25.0547 26.3804 26.1641 23.2408 28.5212C16.1463 33.8479 10.887 35.4097 7.32228 35.6309C6.55348 35.6786 5.85362 35.6648 5.22045 35.6094C6.49582 37.0677 7.96755 38.3423 9.59308 39.3895C13.798 38.7053 19.0951 36.5894 25.549 31.7438Z" fill="#25BBB2"/>
    <path d="M25.6256 40.3594C27.126 39.1113 28.3368 38.2824 29.2953 37.7719C30.2737 37.2507 30.865 37.1286 31.1609 37.1259C31.2281 37.1253 31.2729 37.1308 31.2992 37.1359C31.3251 37.1408 31.3378 37.1463 31.3378 37.1463L31.3403 37.1487C31.3428 37.151 31.3472 37.1554 31.3532 37.1624C31.4119 37.2306 31.5674 37.4813 31.6651 38.1026C31.7141 38.414 31.741 38.7663 31.7466 39.1547C33.0072 38.3048 34.1708 37.3163 35.2166 36.2103C35.0134 35.6092 34.716 35.0247 34.2807 34.5193C33.4775 33.5867 32.3715 33.1182 31.1255 33.1299C29.9669 33.1407 28.7452 33.5602 27.4939 34.2268C26.2225 34.9039 24.7864 35.9086 23.1642 37.258C20.4355 39.5278 18.2085 41.1053 16.391 42.1794C17.7159 42.4549 19.0873 42.5996 20.4917 42.5996C21.3475 42.5996 22.191 42.5458 23.0193 42.4415C23.8457 41.8106 24.7135 41.1181 25.6256 40.3594Z" fill="#25BBB2"/>
    <path fill-rule="evenodd" clip-rule="evenodd" d="M3.99063 9.1781C4.80866 21.5635 13.7975 39.8345 39.9921 28.0854C37.3297 36.5083 29.6056 42.5996 20.4919 42.5996C9.17452 42.5996 0 33.2066 0 21.6198C0 16.9622 1.48245 12.6591 3.99063 9.1781Z" fill="#01050C" fill-opacity="0.35"/>
    <path d="M53.3039 32.6838C53.0959 32.6838 52.8639 32.6678 52.6079 32.6358C52.3679 32.6198 52.1599 32.5798 51.9839 32.5158V30.6678C52.0639 30.6838 52.1759 30.6998 52.3199 30.7158C52.4639 30.7318 52.5759 30.7398 52.6559 30.7398C53.0239 30.7398 53.3119 30.6678 53.5199 30.5238C53.7279 30.3798 53.8719 30.1798 53.9519 29.9238C54.0479 29.6678 54.0959 29.3798 54.0959 29.0598V15.3078H56.6639V29.3238C56.6639 30.4118 56.3599 31.2438 55.7519 31.8198C55.1599 32.3958 54.3439 32.6838 53.3039 32.6838ZM54.0959 13.2438V10.5558H56.6879V13.2438H54.0959Z" fill="black"/>
    <path d="M63.1069 29.3718C62.0189 29.3718 61.1789 29.1638 60.5869 28.7478C59.9949 28.3158 59.5789 27.6918 59.3389 26.8758C59.1149 26.0438 59.0029 25.0278 59.0029 23.8278V20.6598C59.0029 19.4278 59.1229 18.4038 59.3629 17.5878C59.6029 16.7718 60.0189 16.1558 60.6109 15.7398C61.2189 15.3238 62.0509 15.1158 63.1069 15.1158C64.2749 15.1158 65.1309 15.3558 65.6749 15.8358C66.2349 16.3158 66.6029 17.0118 66.7789 17.9238C66.9549 18.8198 67.0429 19.8998 67.0429 21.1638V22.2918H61.5709V25.0758C61.5709 25.6358 61.6189 26.0918 61.7149 26.4438C61.8269 26.7958 61.9949 27.0598 62.2189 27.2358C62.4589 27.3958 62.7629 27.4758 63.1309 27.4758C63.5149 27.4758 63.8029 27.3878 63.9949 27.2118C64.2029 27.0198 64.3389 26.7558 64.4029 26.4198C64.4829 26.0678 64.5229 25.6598 64.5229 25.1958V24.3558H67.0189V24.8838C67.0189 26.2758 66.7229 27.3718 66.1309 28.1718C65.5389 28.9718 64.5309 29.3718 63.1069 29.3718ZM61.5709 20.8998H64.5229V19.6518C64.5229 19.0758 64.4909 18.5958 64.4269 18.2118C64.3629 17.8118 64.2269 17.5158 64.0189 17.3238C63.8269 17.1158 63.5149 17.0118 63.0829 17.0118C62.6669 17.0118 62.3469 17.1078 62.1229 17.2998C61.9149 17.4918 61.7709 17.8198 61.6909 18.2838C61.6109 18.7318 61.5709 19.3558 61.5709 20.1558V20.8998Z" fill="black"/>
    <path d="M73.0646 29.3718C72.3446 29.3718 71.7606 29.2358 71.3126 28.9638C70.8806 28.6918 70.5606 28.3078 70.3526 27.8118C70.1606 27.3158 70.0646 26.7318 70.0646 26.0598V17.0118H68.6006V15.3078H70.0646V11.2518H72.6326V15.3078H74.8646V17.0118H72.6326V25.8918C72.6326 26.4358 72.7206 26.8278 72.8966 27.0678C73.0726 27.2918 73.4086 27.4038 73.9046 27.4038C74.0326 27.4038 74.1766 27.3958 74.3366 27.3798C74.5126 27.3638 74.6806 27.3478 74.8406 27.3318V29.2278C74.5206 29.2758 74.2246 29.3078 73.9526 29.3238C73.6806 29.3558 73.3846 29.3718 73.0646 29.3718Z" fill="black"/>
    <path d="M80.5913 29.3718C79.5033 29.3718 78.6633 29.1638 78.0713 28.7478C77.4793 28.3158 77.0633 27.6918 76.8233 26.8758C76.5993 26.0438 76.4873 25.0278 76.4873 23.8278V20.6598C76.4873 19.4278 76.6073 18.4038 76.8473 17.5878C77.0873 16.7718 77.5033 16.1558 78.0953 15.7398C78.7033 15.3238 79.5353 15.1158 80.5913 15.1158C81.7593 15.1158 82.6153 15.3558 83.1593 15.8358C83.7193 16.3158 84.0873 17.0118 84.2633 17.9238C84.4393 18.8198 84.5273 19.8998 84.5273 21.1638V22.2918H79.0553V25.0758C79.0553 25.6358 79.1033 26.0918 79.1993 26.4438C79.3113 26.7958 79.4793 27.0598 79.7033 27.2358C79.9433 27.3958 80.2473 27.4758 80.6153 27.4758C80.9993 27.4758 81.2873 27.3878 81.4793 27.2118C81.6873 27.0198 81.8233 26.7558 81.8873 26.4198C81.9673 26.0678 82.0073 25.6598 82.0073 25.1958V24.3558H84.5033V24.8838C84.5033 26.2758 84.2073 27.3718 83.6153 28.1718C83.0233 28.9718 82.0153 29.3718 80.5913 29.3718ZM79.0553 20.8998H82.0073V19.6518C82.0073 19.0758 81.9753 18.5958 81.9113 18.2118C81.8473 17.8118 81.7113 17.5158 81.5033 17.3238C81.3113 17.1158 80.9993 17.0118 80.5673 17.0118C80.1513 17.0118 79.8313 17.1078 79.6073 17.2998C79.3993 17.4918 79.2553 17.8198 79.1753 18.2838C79.0953 18.7318 79.0553 19.3558 79.0553 20.1558V20.8998Z" fill="black"/>
    <path d="M90.6693 29.3718C89.6453 29.3718 88.8373 29.1638 88.2453 28.7478C87.6533 28.3318 87.2293 27.7398 86.9733 26.9718C86.7333 26.2038 86.6133 25.2998 86.6133 24.2598V20.2278C86.6133 19.1878 86.7333 18.2838 86.9733 17.5158C87.2293 16.7478 87.6533 16.1558 88.2453 15.7398C88.8373 15.3238 89.6453 15.1158 90.6693 15.1158C91.6933 15.1158 92.4933 15.3238 93.0693 15.7398C93.6613 16.1558 94.0773 16.7478 94.3173 17.5158C94.5733 18.2838 94.7013 19.1878 94.7013 20.2278V24.2598C94.7013 25.2998 94.5733 26.2038 94.3173 26.9718C94.0773 27.7398 93.6613 28.3318 93.0693 28.7478C92.4933 29.1638 91.6933 29.3718 90.6693 29.3718ZM90.6693 27.4758C91.1653 27.4758 91.5093 27.3318 91.7013 27.0438C91.9093 26.7558 92.0293 26.3798 92.0613 25.9158C92.1093 25.4358 92.1333 24.9398 92.1333 24.4278V20.0838C92.1333 19.5558 92.1093 19.0598 92.0613 18.5958C92.0293 18.1318 91.9093 17.7558 91.7013 17.4678C91.5093 17.1638 91.1653 17.0118 90.6693 17.0118C90.1733 17.0118 89.8213 17.1638 89.6133 17.4678C89.4053 17.7558 89.2773 18.1318 89.2293 18.5958C89.1973 19.0598 89.1813 19.5558 89.1813 20.0838V24.4278C89.1813 24.9398 89.1973 25.4358 89.2293 25.9158C89.2773 26.3798 89.4053 26.7558 89.6133 27.0438C89.8213 27.3318 90.1733 27.4758 90.6693 27.4758Z" fill="black"/>
</svg>
