<svg width="44" height="23" viewBox="0 0 44 23" fill="none" xmlns="http://www.w3.org/2000/svg">
    <path d="M2.30389 22.6838C2.09589 22.6838 1.86389 22.6678 1.60789 22.6358C1.36789 22.6198 1.15989 22.5798 0.983887 22.5158V20.6678C1.06389 20.6838 1.17589 20.6998 1.31989 20.7158C1.46389 20.7318 1.57589 20.7398 1.65589 20.7398C2.02389 20.7398 2.31189 20.6678 2.51989 20.5238C2.72789 20.3798 2.87189 20.1798 2.95189 19.9238C3.04789 19.6678 3.09589 19.3798 3.09589 19.0598V5.30779H5.66389V19.3238C5.66389 20.4118 5.35989 21.2438 4.75189 21.8198C4.15989 22.3958 3.34389 22.6838 2.30389 22.6838ZM3.09589 3.24378V0.555786H5.68789V3.24378H3.09589Z" fill="black"/>
    <path d="M12.1069 19.3718C11.0189 19.3718 10.1789 19.1638 9.58693 18.7478C8.99493 18.3158 8.57893 17.6918 8.33893 16.8758C8.11493 16.0438 8.00293 15.0278 8.00293 13.8278V10.6598C8.00293 9.42778 8.12293 8.40378 8.36293 7.58778C8.60293 6.77178 9.01893 6.15578 9.61093 5.73978C10.2189 5.32378 11.0509 5.11578 12.1069 5.11578C13.2749 5.11578 14.1309 5.35578 14.6749 5.83578C15.2349 6.31578 15.6029 7.01178 15.7789 7.92378C15.9549 8.81978 16.0429 9.89978 16.0429 11.1638V12.2918H10.5709V15.0758C10.5709 15.6358 10.6189 16.0918 10.7149 16.4438C10.8269 16.7958 10.9949 17.0598 11.2189 17.2358C11.4589 17.3958 11.7629 17.4758 12.1309 17.4758C12.5149 17.4758 12.8029 17.3878 12.9949 17.2118C13.2029 17.0198 13.3389 16.7558 13.4029 16.4198C13.4829 16.0678 13.5229 15.6598 13.5229 15.1958V14.3558H16.0189V14.8838C16.0189 16.2758 15.7229 17.3718 15.1309 18.1718C14.5389 18.9718 13.5309 19.3718 12.1069 19.3718ZM10.5709 10.8998H13.5229V9.65178C13.5229 9.07578 13.4909 8.59578 13.4269 8.21178C13.3629 7.81178 13.2269 7.51578 13.0189 7.32378C12.8269 7.11578 12.5149 7.01178 12.0829 7.01178C11.6669 7.01178 11.3469 7.10778 11.1229 7.29978C10.9149 7.49178 10.7709 7.81978 10.6909 8.28378C10.6109 8.73178 10.5709 9.35578 10.5709 10.1558V10.8998Z" fill="black"/>
    <path d="M22.0646 19.3718C21.3446 19.3718 20.7606 19.2358 20.3126 18.9638C19.8806 18.6918 19.5606 18.3078 19.3526 17.8118C19.1606 17.3158 19.0646 16.7318 19.0646 16.0598V7.01183H17.6006V5.30783H19.0646V1.25183H21.6326V5.30783H23.8646V7.01183H21.6326V15.8918C21.6326 16.4358 21.7206 16.8278 21.8966 17.0678C22.0726 17.2918 22.4086 17.4038 22.9046 17.4038C23.0326 17.4038 23.1766 17.3958 23.3366 17.3798C23.5126 17.3638 23.6806 17.3478 23.8406 17.3318V19.2278C23.5206 19.2758 23.2246 19.3078 22.9526 19.3238C22.6806 19.3558 22.3846 19.3718 22.0646 19.3718Z" fill="black"/>
    <path d="M29.5913 19.3718C28.5033 19.3718 27.6633 19.1638 27.0713 18.7478C26.4793 18.3158 26.0633 17.6918 25.8233 16.8758C25.5993 16.0438 25.4873 15.0278 25.4873 13.8278V10.6598C25.4873 9.42778 25.6073 8.40378 25.8473 7.58778C26.0873 6.77178 26.5033 6.15578 27.0953 5.73978C27.7033 5.32378 28.5353 5.11578 29.5913 5.11578C30.7593 5.11578 31.6153 5.35578 32.1593 5.83578C32.7193 6.31578 33.0873 7.01178 33.2633 7.92378C33.4393 8.81978 33.5273 9.89978 33.5273 11.1638V12.2918H28.0553V15.0758C28.0553 15.6358 28.1033 16.0918 28.1993 16.4438C28.3113 16.7958 28.4793 17.0598 28.7033 17.2358C28.9433 17.3958 29.2473 17.4758 29.6153 17.4758C29.9993 17.4758 30.2873 17.3878 30.4793 17.2118C30.6873 17.0198 30.8233 16.7558 30.8873 16.4198C30.9673 16.0678 31.0073 15.6598 31.0073 15.1958V14.3558H33.5033V14.8838C33.5033 16.2758 33.2073 17.3718 32.6153 18.1718C32.0233 18.9718 31.0153 19.3718 29.5913 19.3718ZM28.0553 10.8998H31.0073V9.65178C31.0073 9.07578 30.9753 8.59578 30.9113 8.21178C30.8473 7.81178 30.7113 7.51578 30.5033 7.32378C30.3113 7.11578 29.9993 7.01178 29.5673 7.01178C29.1513 7.01178 28.8313 7.10778 28.6073 7.29978C28.3993 7.49178 28.2553 7.81978 28.1753 8.28378C28.0953 8.73178 28.0553 9.35578 28.0553 10.1558V10.8998Z" fill="black"/>
    <path d="M39.6693 19.3718C38.6453 19.3718 37.8373 19.1638 37.2453 18.7478C36.6533 18.3318 36.2293 17.7398 35.9733 16.9718C35.7333 16.2038 35.6133 15.2998 35.6133 14.2598V10.2278C35.6133 9.18778 35.7333 8.28378 35.9733 7.51578C36.2293 6.74778 36.6533 6.15578 37.2453 5.73978C37.8373 5.32378 38.6453 5.11578 39.6693 5.11578C40.6933 5.11578 41.4933 5.32378 42.0693 5.73978C42.6613 6.15578 43.0773 6.74778 43.3173 7.51578C43.5733 8.28378 43.7013 9.18778 43.7013 10.2278V14.2598C43.7013 15.2998 43.5733 16.2038 43.3173 16.9718C43.0773 17.7398 42.6613 18.3318 42.0693 18.7478C41.4933 19.1638 40.6933 19.3718 39.6693 19.3718ZM39.6693 17.4758C40.1653 17.4758 40.5093 17.3318 40.7013 17.0438C40.9093 16.7558 41.0293 16.3798 41.0613 15.9158C41.1093 15.4358 41.1333 14.9398 41.1333 14.4278V10.0838C41.1333 9.55578 41.1093 9.05978 41.0613 8.59578C41.0293 8.13178 40.9093 7.75578 40.7013 7.46778C40.5093 7.16378 40.1653 7.01178 39.6693 7.01178C39.1733 7.01178 38.8213 7.16378 38.6133 7.46778C38.4053 7.75578 38.2773 8.13178 38.2293 8.59578C38.1973 9.05978 38.1813 9.55578 38.1813 10.0838V14.4278C38.1813 14.9398 38.1973 15.4358 38.2293 15.9158C38.2773 16.3798 38.4053 16.7558 38.6133 17.0438C38.8213 17.3318 39.1733 17.4758 39.6693 17.4758Z" fill="black"/>
</svg>
