<svg width="41" height="43" viewBox="0 0 41 43" fill="none" xmlns="http://www.w3.org/2000/svg">
    <path d="M20.4919 42.5996C31.8092 42.5996 40.9837 33.2066 40.9837 21.6198C40.9837 10.033 31.8092 0.640015 20.4919 0.640015C9.17452 0.640015 0 10.033 0 21.6198C0 33.2066 9.17452 42.5996 20.4919 42.5996Z" fill="#3937B4"/>
    <path d="M4.80656 8.11822C9.30988 8.06208 14.6714 7.29451 20.2407 5.01376C23.1095 3.8389 26.4316 3.20801 29.7721 2.90983C27.0148 1.47338 23.8975 0.657054 20.5956 0.640278C19.9831 0.841466 19.3807 1.06198 18.7911 1.30343C15.6669 2.58286 12.6107 3.33757 9.76614 3.7398C7.89182 4.92083 6.21731 6.40212 4.80656 8.11822Z" fill="#25BBB2"/>
    <path d="M19.688 13.7967C23.4682 10.982 27.1605 10.7252 30.2775 11.5871C33.4792 12.4725 36.1006 14.5535 37.4851 16.3961C38.1422 17.2708 39.3675 17.4344 40.2219 16.7615C40.2832 16.7132 40.341 16.6619 40.3952 16.6079C39.991 14.9198 39.3873 13.3119 38.6111 11.8119C36.7236 10.0867 34.2 8.53244 31.2953 7.72923C27.1264 6.57645 22.1992 6.98569 17.3923 10.5648C13.6085 13.3821 9.53021 13.8393 5.87524 13.2307C4.55778 13.0113 3.30687 12.6544 2.16394 12.2256C1.5843 13.4087 1.11073 14.6556 0.755987 15.9533C2.1384 16.4763 3.65089 16.9089 5.24861 17.175C9.69278 17.915 14.8846 17.3732 19.688 13.7967Z" fill="#25BBB2"/>
    <path d="M19.6942 25.1306C25.1586 21.028 29.5165 20.6552 32.6681 21.5271C35.9204 22.4269 38.228 24.7455 39.3215 26.5647C39.5399 26.9281 39.8536 27.1948 40.2094 27.3518C40.6616 25.7181 40.9253 24.0033 40.975 22.2336C39.2773 20.3524 36.8211 18.5365 33.6862 17.6693C29.194 16.4265 23.6312 17.2192 17.386 21.9081C11.9099 26.0196 7.13525 26.771 3.45707 26.2134C2.31895 26.0408 1.2708 25.7407 0.325195 25.3638C0.605933 26.9593 1.06288 28.4922 1.67467 29.9404C2.06926 30.0281 2.47293 30.1039 2.88534 30.1664C7.66412 30.8909 13.4606 29.8108 19.6942 25.1306Z" fill="#25BBB2"/>
    <path d="M25.549 31.7438C28.2643 29.7052 30.3515 29.0746 31.901 29.1081C33.4067 29.1406 34.6832 29.8062 35.8086 30.9816C36.4415 31.6427 37.0039 32.4436 37.4974 33.3293C38.3196 32.08 39.014 30.7353 39.5614 29.3146C39.2578 28.918 38.9363 28.5398 38.5962 28.1845C36.916 26.4295 34.7162 25.1719 31.9833 25.1129C29.2941 25.0547 26.3804 26.1641 23.2408 28.5212C16.1463 33.8479 10.887 35.4097 7.32228 35.6309C6.55348 35.6786 5.85362 35.6648 5.22045 35.6094C6.49582 37.0677 7.96755 38.3423 9.59308 39.3895C13.798 38.7053 19.0951 36.5894 25.549 31.7438Z" fill="#25BBB2"/>
    <path d="M25.6256 40.3594C27.126 39.1113 28.3368 38.2824 29.2953 37.7719C30.2737 37.2507 30.865 37.1286 31.1609 37.1259C31.2281 37.1253 31.2729 37.1308 31.2992 37.1359C31.3251 37.1408 31.3378 37.1463 31.3378 37.1463L31.3403 37.1487C31.3428 37.151 31.3472 37.1554 31.3532 37.1624C31.4119 37.2306 31.5674 37.4813 31.6651 38.1026C31.7141 38.414 31.741 38.7663 31.7466 39.1547C33.0072 38.3048 34.1708 37.3163 35.2166 36.2103C35.0134 35.6092 34.716 35.0247 34.2807 34.5193C33.4775 33.5867 32.3715 33.1182 31.1255 33.1299C29.9669 33.1407 28.7452 33.5602 27.4939 34.2268C26.2225 34.9039 24.7864 35.9086 23.1642 37.258C20.4355 39.5278 18.2085 41.1053 16.391 42.1794C17.7159 42.4549 19.0873 42.5996 20.4917 42.5996C21.3475 42.5996 22.191 42.5458 23.0193 42.4415C23.8457 41.8106 24.7135 41.1181 25.6256 40.3594Z" fill="#25BBB2"/>
    <path fill-rule="evenodd" clip-rule="evenodd" d="M3.99063 9.1781C4.80866 21.5635 13.7975 39.8345 39.9921 28.0854C37.3297 36.5083 29.6056 42.5996 20.4919 42.5996C9.17452 42.5996 0 33.2066 0 21.6198C0 16.9622 1.48245 12.6591 3.99063 9.1781Z" fill="#01050C" fill-opacity="0.35"/>
</svg>
