<svg width="34" height="34" viewBox="0 0 34 34" fill="none" xmlns="http://www.w3.org/2000/svg">
    <path d="M0 2.5C0 1.11929 1.11929 0 2.5 0H31.5C32.8807 0 34 1.11929 34 2.5C34 3.88071 32.8807 5 31.5 5H2.5C1.11929 5 0 3.88071 0 2.5Z" fill="#000000"/>
    <path d="M0 17.5C0 16.1193 1.11929 15 2.5 15H31.5C32.8807 15 34 16.1193 34 17.5C34 18.8807 32.8807 20 31.5 20H2.5C1.11929 20 0 18.8807 0 17.5Z" fill="#000000"/>
    <path d="M0 31.5C0 30.1193 1.11929 29 2.5 29H31.5C32.8807 29 34 30.1193 34 31.5C34 32.8807 32.8807 34 31.5 34H2.5C1.11929 34 0 32.8807 0 31.5Z" fill="#000000"/>
</svg>
