<svg width="32" height="32" viewBox="0 0 32 32" fill="none" xmlns="http://www.w3.org/2000/svg">
    <path d="M0 2.35294C0 1.05345 1.05345 0 2.35294 0H29.6471C30.9466 0 32 1.05345 32 2.35294C32 3.65243 30.9466 4.70588 29.6471 4.70588H2.35294C1.05345 4.70588 0 3.65243 0 2.35294Z" fill="#080736"/>
    <path d="M0 16.4706C0 15.1711 1.05345 14.1176 2.35294 14.1176H29.6471C30.9466 14.1176 32 15.1711 32 16.4706C32 17.7701 30.9466 18.8235 29.6471 18.8235H2.35294C1.05345 18.8235 0 17.7701 0 16.4706Z" fill="#080736"/>
    <path d="M0 29.6471C0 28.3476 1.05345 27.2941 2.35294 27.2941H29.6471C30.9466 27.2941 32 28.3476 32 29.6471C32 30.9466 30.9466 32 29.6471 32H2.35294C1.05345 32 0 30.9466 0 29.6471Z" fill="#080736"/>
</svg>
