<svg width="26" height="25" viewBox="0 0 26 25" fill="none" xmlns="http://www.w3.org/2000/svg">
<path d="M0.459839 4.68702C0.459839 2.47788 2.2507 0.687012 4.45984 0.687012H7.91485C10.124 0.687012 11.9149 2.47787 11.9149 4.68701V20.9307C11.9149 23.1399 10.124 24.9308 7.91485 24.9308H4.45984C2.2507 24.9308 0.459839 23.1399 0.459839 20.9308V4.68702Z" fill="black"/>
<path d="M14.1118 4.68701C14.1118 2.47787 15.9027 0.687012 18.1118 0.687012H21.5668C23.776 0.687012 25.5668 2.47787 25.5668 4.68701V8.14188C25.5668 10.351 23.776 12.1419 21.5668 12.1419H18.1118C15.9027 12.1419 14.1118 10.351 14.1118 8.14188V4.68701Z" fill="black"/>
<path d="M14.1118 17.4756C14.1118 15.2664 15.9027 13.4756 18.1118 13.4756H21.5668C23.776 13.4756 25.5668 15.2664 25.5668 17.4756V20.9305C25.5668 23.1396 23.776 24.9305 21.5668 24.9305H18.1118C15.9027 24.9305 14.1118 23.1396 14.1118 20.9305V17.4756Z" fill="black"/>
</svg>
