<svg width="13" height="18" viewBox="0 0 13 18" fill="none" xmlns="http://www.w3.org/2000/svg">
    <path fill-rule="evenodd" clip-rule="evenodd" d="M6.99023 18L3.00563 12.8769C1.69149 11.1873 0.990234 9.20211 0.990234 7.17145V5.14286C0.990234 3.42857 2.19023 0 6.99023 0C11.7902 0 12.9902 3.42857 12.9902 5.14286V7.17145C12.9902 9.20211 12.289 11.1873 10.9748 12.8769L6.99023 18ZM6.99023 3.00006C4.59023 3.00006 3.99023 4.90482 3.99023 5.8572C3.99023 6.80959 4.59023 8.71434 6.99023 8.71434C9.39023 8.71434 9.99023 6.80959 9.99023 5.8572C9.99023 4.90482 9.39023 3.00006 6.99023 3.00006Z" fill="white"/>
</svg>