<svg width="126" height="126" viewBox="0 0 126 126" fill="none" xmlns="http://www.w3.org/2000/svg">
<circle cx="63" cy="63" r="63" fill="#3937B4"/>
<mask id="mask0_2207_1580" style="mask-type:alpha" maskUnits="userSpaceOnUse" x="0" y="0" width="126" height="126">
<circle cx="63" cy="63" r="63" fill="#C4C4C4"/>
</mask>
<g mask="url(#mask0_2207_1580)">
<path fill-rule="evenodd" clip-rule="evenodd" d="M112.244 4.58375C97.4103 4.70378 81.2911 6.34578 68.2284 11.5709C36.7834 24.149 7.49213 21.4013 -7.25713 18.2407C-10.4973 17.5464 -12.5611 14.3569 -11.8668 11.1167C-11.1725 7.87657 -7.98294 5.81276 -4.74278 6.50708C8.50795 9.34652 35.2167 11.8513 63.7717 0.429171C78.8956 -5.62042 96.7763 -7.29149 112.146 -7.41585C125.051 -7.52027 136.652 -6.52583 143.798 -5.91328C145.197 -5.79331 146.426 -5.68798 147.46 -5.60843C150.764 -5.35428 153.237 -2.46987 152.982 0.834073C152.728 4.13802 149.844 6.61037 146.54 6.35622C145.411 6.26939 144.107 6.15796 142.648 6.03328C135.464 5.41942 124.522 4.48441 112.244 4.58375ZM99.0856 31.3101C89.5024 28.7218 78.1508 29.4929 66.5291 37.945C51.7617 48.685 35.7999 50.3121 22.1368 48.0898C8.61205 45.89 -2.9263 39.8979 -9.59996 34.8926C-12.2509 32.9044 -12.7882 29.1436 -10.8 26.4926C-8.81173 23.8416 -5.05093 23.3044 -2.39996 25.2926C2.92638 29.2874 12.688 34.3952 24.0633 36.2454C35.3002 38.0731 47.8384 36.7003 59.471 28.2402C74.2493 17.4924 89.3976 16.2635 102.215 19.7252C114.771 23.1167 125.012 30.9674 130.756 38.4344C132.776 41.0609 132.285 44.828 129.658 46.8484C127.032 48.8688 123.265 48.3774 121.244 45.7509C116.988 40.2178 108.929 33.9686 99.0856 31.3101ZM106.435 61.1586C96.7458 58.5405 83.3477 59.6601 66.5482 71.9798C47.3839 86.0336 29.563 89.2772 14.8712 87.1016C0.394531 84.958 -10.5823 77.6204 -16.4396 71.1774C-18.6686 68.7254 -18.4879 64.9308 -16.036 62.7017C-13.584 60.4727 -9.78936 60.6534 -7.56032 63.1053C-3.41761 67.6623 5.10555 73.5247 16.6289 75.2311C27.9371 76.9056 42.6162 74.6491 59.4519 62.3029C78.6523 48.2226 95.7543 45.8422 109.565 49.5741C123.066 53.2222 132.472 62.4597 137.11 69.9968C138.847 72.8189 137.967 76.5146 135.145 78.2513C132.322 79.988 128.627 79.1081 126.89 76.2859C123.528 70.823 116.434 63.8605 106.435 61.1586ZM104.077 83.9236C99.3129 83.823 92.896 85.7166 84.5482 91.8383C61.3598 108.843 43.0288 114.653 29.238 115.489C15.3471 116.331 6.7327 112.074 3.31676 110.366C0.352889 108.885 -0.848457 105.281 0.633478 102.317C2.11541 99.3528 5.71945 98.1514 8.68332 99.6334L8.74699 99.6652C11.3713 100.978 17.7411 104.164 28.5121 103.511C39.4713 102.847 55.6403 98.1566 77.4519 82.1615C87.1041 75.0832 96.0621 71.7518 104.33 71.9262C112.732 72.1035 119.495 75.88 124.66 81.1501C134.633 91.325 139.382 107.729 140.945 119.189C141.393 122.473 139.094 125.497 135.811 125.945C132.527 126.393 129.503 124.094 129.055 120.811C127.618 110.271 123.367 96.9748 116.09 89.5497C112.63 86.0198 108.706 84.0213 104.077 83.9236ZM96.0656 109.94C93.1189 111.473 89.3964 113.962 84.7836 117.71C72.5686 127.635 62.9346 133.788 55.1676 137.314C47.39 140.844 41.125 141.902 35.86 141.112C30.478 140.305 26.9971 137.688 24.7365 135.71C24.1159 135.167 23.7246 134.806 23.426 134.531C23.1555 134.282 22.961 134.103 22.741 133.921C20.0318 133.343 18 130.935 18 128.053C18 124.74 20.6863 122.053 24 122.053C26.7993 122.053 28.8387 123.462 29.874 124.262C30.537 124.775 31.4216 125.578 32.0559 126.154C32.2935 126.37 32.496 126.554 32.6386 126.679C34.1279 127.982 35.522 128.927 37.6401 129.245C39.8751 129.58 43.735 129.325 50.2074 126.387C56.6905 123.444 65.4315 117.972 77.2165 108.397C82.2037 104.345 86.6187 101.328 90.5275 99.2944C94.3747 97.2929 98.1305 96.033 101.692 96.0006C105.523 95.9658 108.923 97.3726 111.393 100.173C113.661 102.746 114.712 106.002 115.199 109.024C116.166 115.03 115.279 122.557 113.79 129.716C112.267 137.037 109.967 144.638 107.645 151.086C106.523 154.204 103.086 155.821 99.9677 154.699C96.8499 153.576 95.2323 150.139 96.3547 147.021C98.5334 140.969 100.658 133.92 102.041 127.272C103.458 120.462 103.959 114.702 103.351 110.933C103.051 109.067 102.573 108.315 102.392 108.11C102.374 108.089 102.361 108.076 102.353 108.069L102.345 108.061C102.341 108.06 102.306 108.045 102.227 108.03C102.145 108.015 102.008 107.998 101.801 108C100.891 108.008 99.0738 108.375 96.0656 109.94ZM22.3805 133.647C22.3801 133.646 22.3989 133.657 22.4378 133.684C22.4003 133.663 22.3808 133.649 22.3805 133.647Z" fill="#25BBB2"/>
</g>
<path fill-rule="evenodd" clip-rule="evenodd" d="M12.2687 25.6388C14.7837 62.8309 42.4189 117.697 122.952 82.4152C114.766 107.709 91.0192 126 63 126C28.2061 126 0 97.7939 0 63C0 49.0137 4.55763 36.0919 12.2687 25.6388Z" fill="#01050C" fill-opacity="0.35"/>
</svg>
